<?xml version="1.0" encoding="UTF-8" standalone="no"?>
<!-- Created with Inkscape (http://www.inkscape.org/) -->

<svg
   xmlns:dc="http://purl.org/dc/elements/1.1/"
   xmlns:cc="http://creativecommons.org/ns#"
   xmlns:rdf="http://www.w3.org/1999/02/22-rdf-syntax-ns#"
   xmlns:svg="http://www.w3.org/2000/svg"
   xmlns="http://www.w3.org/2000/svg"
   xmlns:sodipodi="http://sodipodi.sourceforge.net/DTD/sodipodi-0.dtd"
   xmlns:inkscape="http://www.inkscape.org/namespaces/inkscape"
   width="257.68463"
   height="102.38174"
   id="svg2"
   version="1.1"
   inkscape:version="0.48.4 r9939"
   sodipodi:docname="plateau-4.svg"
   inkscape:export-filename="/home/guicho/Dropbox/FukunagaLabShare/qiita-graphsearch-adventcalender/dijkstra-taco.png"
   inkscape:export-xdpi="45"
   inkscape:export-ydpi="45">
  <defs
     id="defs4">
    <marker
       inkscape:stockid="Arrow1Send"
       orient="auto"
       refY="0"
       refX="0"
       id="Arrow1Send"
       style="overflow:visible">
      <path
         id="path6182"
         d="M 0,0 5,-5 -12.5,0 5,5 0,0 z"
         style="fill-rule:evenodd;stroke:#000000;stroke-width:1pt"
         transform="matrix(-0.2,0,0,-0.2,-1.2,0)"
         inkscape:connector-curvature="0" />
    </marker>
    <marker
       inkscape:stockid="Arrow1Mend"
       orient="auto"
       refY="0"
       refX="0"
       id="Arrow1Mend"
       style="overflow:visible">
      <path
         id="path6106"
         d="M 0,0 5,-5 -12.5,0 5,5 0,0 z"
         style="fill-rule:evenodd;stroke:#000000;stroke-width:1pt"
         transform="matrix(-0.4,0,0,-0.4,-4,0)"
         inkscape:connector-curvature="0" />
    </marker>
    <marker
       inkscape:stockid="Arrow1Lstart"
       orient="auto"
       refY="0"
       refX="0"
       id="Arrow1Lstart"
       style="overflow:visible">
      <path
         id="path14925"
         d="M 0,0 5,-5 -12.5,0 5,5 0,0 z"
         style="fill-rule:evenodd;stroke:#000000;stroke-width:1pt"
         transform="matrix(0.8,0,0,0.8,10,0)"
         inkscape:connector-curvature="0" />
    </marker>
    <marker
       inkscape:stockid="Arrow1Lend"
       orient="auto"
       refY="0"
       refX="0"
       id="Arrow1Lend"
       style="overflow:visible">
      <path
         id="path14928"
         d="M 0,0 5,-5 -12.5,0 5,5 0,0 z"
         style="fill-rule:evenodd;stroke:#000000;stroke-width:1pt"
         transform="matrix(-0.8,0,0,-0.8,-10,0)"
         inkscape:connector-curvature="0" />
    </marker>
    <marker
       inkscape:stockid="Arrow1Lstart"
       orient="auto"
       refY="0"
       refX="0"
       id="Arrow1Lstart-7"
       style="overflow:visible">
      <path
         inkscape:connector-curvature="0"
         id="path14925-5"
         d="M 0,0 5,-5 -12.5,0 5,5 0,0 z"
         style="fill-rule:evenodd;stroke:#000000;stroke-width:1pt"
         transform="matrix(0.8,0,0,0.8,10,0)" />
    </marker>
    <marker
       inkscape:stockid="Arrow1Lend"
       orient="auto"
       refY="0"
       refX="0"
       id="Arrow1Lend-5"
       style="overflow:visible">
      <path
         inkscape:connector-curvature="0"
         id="path14928-5"
         d="M 0,0 5,-5 -12.5,0 5,5 0,0 z"
         style="fill-rule:evenodd;stroke:#000000;stroke-width:1pt"
         transform="matrix(-0.8,0,0,-0.8,-10,0)" />
    </marker>
    <marker
       inkscape:stockid="Arrow1Lend"
       orient="auto"
       refY="0"
       refX="0"
       id="Arrow1Lend-2"
       style="overflow:visible">
      <path
         inkscape:connector-curvature="0"
         id="path14928-0"
         d="M 0,0 5,-5 -12.5,0 5,5 0,0 z"
         style="fill-rule:evenodd;stroke:#000000;stroke-width:1pt"
         transform="matrix(-0.8,0,0,-0.8,-10,0)" />
    </marker>
    <marker
       inkscape:stockid="Arrow1Lend"
       orient="auto"
       refY="0"
       refX="0"
       id="Arrow1Lend-58"
       style="overflow:visible">
      <path
         inkscape:connector-curvature="0"
         id="path14928-9"
         d="M 0,0 5,-5 -12.5,0 5,5 0,0 z"
         style="fill-rule:evenodd;stroke:#000000;stroke-width:1pt"
         transform="matrix(-0.8,0,0,-0.8,-10,0)" />
    </marker>
    <marker
       inkscape:stockid="Arrow1Lend"
       orient="auto"
       refY="0"
       refX="0"
       id="Arrow1Lend-6"
       style="overflow:visible">
      <path
         inkscape:connector-curvature="0"
         id="path14928-6"
         d="M 0,0 5,-5 -12.5,0 5,5 0,0 z"
         style="fill-rule:evenodd;stroke:#000000;stroke-width:1pt"
         transform="matrix(-0.8,0,0,-0.8,-10,0)" />
    </marker>
    <marker
       inkscape:stockid="Arrow1Send"
       orient="auto"
       refY="0"
       refX="0"
       id="Arrow1Send-0"
       style="overflow:visible">
      <path
         inkscape:connector-curvature="0"
         id="path6182-1"
         d="M 0,0 5,-5 -12.5,0 5,5 0,0 z"
         style="fill-rule:evenodd;stroke:#000000;stroke-width:1pt"
         transform="matrix(-0.2,0,0,-0.2,-1.2,0)" />
    </marker>
    <marker
       inkscape:stockid="Arrow1Send"
       orient="auto"
       refY="0"
       refX="0"
       id="Arrow1Send-8"
       style="overflow:visible">
      <path
         inkscape:connector-curvature="0"
         id="path6182-0"
         d="M 0,0 5,-5 -12.5,0 5,5 0,0 z"
         style="fill-rule:evenodd;stroke:#000000;stroke-width:1pt"
         transform="matrix(-0.2,0,0,-0.2,-1.2,0)" />
    </marker>
    <marker
       inkscape:stockid="Arrow1Send"
       orient="auto"
       refY="0"
       refX="0"
       id="Arrow1Send-6"
       style="overflow:visible">
      <path
         inkscape:connector-curvature="0"
         id="path6182-6"
         d="M 0,0 5,-5 -12.5,0 5,5 0,0 z"
         style="fill-rule:evenodd;stroke:#000000;stroke-width:1pt"
         transform="matrix(-0.2,0,0,-0.2,-1.2,0)" />
    </marker>
    <marker
       inkscape:stockid="Arrow1Send"
       orient="auto"
       refY="0"
       refX="0"
       id="Arrow1Send-61"
       style="overflow:visible">
      <path
         inkscape:connector-curvature="0"
         id="path6182-18"
         d="M 0,0 5,-5 -12.5,0 5,5 0,0 z"
         style="fill-rule:evenodd;stroke:#000000;stroke-width:1pt"
         transform="matrix(-0.2,0,0,-0.2,-1.2,0)" />
    </marker>
    <marker
       inkscape:stockid="Arrow1Mend"
       orient="auto"
       refY="0"
       refX="0"
       id="Arrow1Mend-3"
       style="overflow:visible">
      <path
         id="path6106-4"
         d="M 0,0 5,-5 -12.5,0 5,5 0,0 z"
         style="fill-rule:evenodd;stroke:#000000;stroke-width:1pt"
         transform="matrix(-0.4,0,0,-0.4,-4,0)"
         inkscape:connector-curvature="0" />
    </marker>
    <marker
       inkscape:stockid="Arrow1Mend"
       orient="auto"
       refY="0"
       refX="0"
       id="Arrow1Mend-8"
       style="overflow:visible">
      <path
         id="path6106-9"
         d="M 0,0 5,-5 -12.5,0 5,5 0,0 z"
         style="fill-rule:evenodd;stroke:#000000;stroke-width:1pt"
         transform="matrix(-0.4,0,0,-0.4,-4,0)"
         inkscape:connector-curvature="0" />
    </marker>
    <marker
       inkscape:stockid="Arrow1Mend"
       orient="auto"
       refY="0"
       refX="0"
       id="Arrow1Mend-30"
       style="overflow:visible">
      <path
         id="path6106-97"
         d="M 0,0 5,-5 -12.5,0 5,5 0,0 z"
         style="fill-rule:evenodd;stroke:#000000;stroke-width:1pt"
         transform="matrix(-0.4,0,0,-0.4,-4,0)"
         inkscape:connector-curvature="0" />
    </marker>
    <marker
       inkscape:stockid="Arrow1Mend"
       orient="auto"
       refY="0"
       refX="0"
       id="marker3070"
       style="overflow:visible">
      <path
         id="path3072"
         d="M 0,0 5,-5 -12.5,0 5,5 0,0 z"
         style="fill-rule:evenodd;stroke:#000000;stroke-width:1pt"
         transform="matrix(-0.4,0,0,-0.4,-4,0)"
         inkscape:connector-curvature="0" />
    </marker>
    <marker
       inkscape:stockid="Arrow1Mstart"
       orient="auto"
       refY="0"
       refX="0"
       id="Arrow1Mstart"
       style="overflow:visible">
      <path
         inkscape:connector-curvature="0"
         id="path6043"
         d="M 0,0 5,-5 -12.5,0 5,5 0,0 z"
         style="fill-rule:evenodd;stroke:#000000;stroke-width:1pt"
         transform="matrix(0.4,0,0,0.4,4,0)" />
    </marker>
    <marker
       inkscape:stockid="Arrow1Mend"
       orient="auto"
       refY="0"
       refX="0"
       id="marker3076"
       style="overflow:visible">
      <path
         id="path3078"
         d="M 0,0 5,-5 -12.5,0 5,5 0,0 z"
         style="fill-rule:evenodd;stroke:#000000;stroke-width:1pt"
         transform="matrix(-0.4,0,0,-0.4,-4,0)"
         inkscape:connector-curvature="0" />
    </marker>
    <marker
       inkscape:stockid="Arrow1Mend"
       orient="auto"
       refY="0"
       refX="0"
       id="marker3080"
       style="overflow:visible">
      <path
         id="path3082"
         d="M 0,0 5,-5 -12.5,0 5,5 0,0 z"
         style="fill-rule:evenodd;stroke:#000000;stroke-width:1pt"
         transform="matrix(-0.4,0,0,-0.4,-4,0)"
         inkscape:connector-curvature="0" />
    </marker>
    <marker
       inkscape:stockid="Arrow1Mend"
       orient="auto"
       refY="0"
       refX="0"
       id="marker3084"
       style="overflow:visible">
      <path
         id="path3086"
         d="M 0,0 5,-5 -12.5,0 5,5 0,0 z"
         style="fill-rule:evenodd;stroke:#000000;stroke-width:1pt"
         transform="matrix(-0.4,0,0,-0.4,-4,0)"
         inkscape:connector-curvature="0" />
    </marker>
    <marker
       inkscape:stockid="Arrow1Mend"
       orient="auto"
       refY="0"
       refX="0"
       id="Arrow1Mend-5"
       style="overflow:visible">
      <path
         id="path6106-8"
         d="M 0,0 5,-5 -12.5,0 5,5 0,0 z"
         style="fill-rule:evenodd;stroke:#000000;stroke-width:1pt"
         transform="matrix(-0.4,0,0,-0.4,-4,0)"
         inkscape:connector-curvature="0" />
    </marker>
    <marker
       inkscape:stockid="Arrow1Mend"
       orient="auto"
       refY="0"
       refX="0"
       id="marker3134"
       style="overflow:visible">
      <path
         id="path3136"
         d="M 0,0 5,-5 -12.5,0 5,5 0,0 z"
         style="fill-rule:evenodd;stroke:#000000;stroke-width:1pt"
         transform="matrix(-0.4,0,0,-0.4,-4,0)"
         inkscape:connector-curvature="0" />
    </marker>
    <marker
       inkscape:stockid="Arrow1Mend"
       orient="auto"
       refY="0"
       refX="0"
       id="marker3138"
       style="overflow:visible">
      <path
         id="path3140"
         d="M 0,0 5,-5 -12.5,0 5,5 0,0 z"
         style="fill-rule:evenodd;stroke:#000000;stroke-width:1pt"
         transform="matrix(-0.4,0,0,-0.4,-4,0)"
         inkscape:connector-curvature="0" />
    </marker>
    <marker
       inkscape:stockid="Arrow1Mend"
       orient="auto"
       refY="0"
       refX="0"
       id="marker3142"
       style="overflow:visible">
      <path
         id="path3144"
         d="M 0,0 5,-5 -12.5,0 5,5 0,0 z"
         style="fill-rule:evenodd;stroke:#000000;stroke-width:1pt"
         transform="matrix(-0.4,0,0,-0.4,-4,0)"
         inkscape:connector-curvature="0" />
    </marker>
    <marker
       inkscape:stockid="Arrow1Mend"
       orient="auto"
       refY="0"
       refX="0"
       id="Arrow1Mend-84"
       style="overflow:visible">
      <path
         id="path6106-7"
         d="M 0,0 5,-5 -12.5,0 5,5 0,0 z"
         style="fill-rule:evenodd;stroke:#000000;stroke-width:1pt"
         transform="matrix(-0.4,0,0,-0.4,-4,0)"
         inkscape:connector-curvature="0" />
    </marker>
    <marker
       inkscape:stockid="Arrow1Mend"
       orient="auto"
       refY="0"
       refX="0"
       id="marker3251"
       style="overflow:visible">
      <path
         id="path3253"
         d="M 0,0 5,-5 -12.5,0 5,5 0,0 z"
         style="fill-rule:evenodd;stroke:#000000;stroke-width:1pt"
         transform="matrix(-0.4,0,0,-0.4,-4,0)"
         inkscape:connector-curvature="0" />
    </marker>
    <marker
       inkscape:stockid="Arrow1Mend"
       orient="auto"
       refY="0"
       refX="0"
       id="marker3255"
       style="overflow:visible">
      <path
         id="path3257"
         d="M 0,0 5,-5 -12.5,0 5,5 0,0 z"
         style="fill-rule:evenodd;stroke:#000000;stroke-width:1pt"
         transform="matrix(-0.4,0,0,-0.4,-4,0)"
         inkscape:connector-curvature="0" />
    </marker>
    <marker
       inkscape:stockid="Arrow1Mend"
       orient="auto"
       refY="0"
       refX="0"
       id="marker3259"
       style="overflow:visible">
      <path
         id="path3261"
         d="M 0,0 5,-5 -12.5,0 5,5 0,0 z"
         style="fill-rule:evenodd;stroke:#000000;stroke-width:1pt"
         transform="matrix(-0.4,0,0,-0.4,-4,0)"
         inkscape:connector-curvature="0" />
    </marker>
    <marker
       inkscape:stockid="Arrow1Mend"
       orient="auto"
       refY="0"
       refX="0"
       id="Arrow1Mend-55"
       style="overflow:visible">
      <path
         id="path6106-6"
         d="M 0,0 5,-5 -12.5,0 5,5 0,0 z"
         style="fill-rule:evenodd;stroke:#000000;stroke-width:1pt"
         transform="matrix(-0.4,0,0,-0.4,-4,0)"
         inkscape:connector-curvature="0" />
    </marker>
    <marker
       inkscape:stockid="Arrow1Mend"
       orient="auto"
       refY="0"
       refX="0"
       id="Arrow1Mend-51"
       style="overflow:visible">
      <path
         id="path6106-3"
         d="M 0,0 5,-5 -12.5,0 5,5 0,0 z"
         style="fill-rule:evenodd;stroke:#000000;stroke-width:1pt"
         transform="matrix(-0.4,0,0,-0.4,-4,0)"
         inkscape:connector-curvature="0" />
    </marker>
    <marker
       inkscape:stockid="Arrow1Mend"
       orient="auto"
       refY="0"
       refX="0"
       id="marker3619"
       style="overflow:visible">
      <path
         id="path3621"
         d="M 0,0 5,-5 -12.5,0 5,5 0,0 z"
         style="fill-rule:evenodd;stroke:#000000;stroke-width:1pt"
         transform="matrix(-0.4,0,0,-0.4,-4,0)"
         inkscape:connector-curvature="0" />
    </marker>
    <marker
       inkscape:stockid="Arrow1Mstart"
       orient="auto"
       refY="0"
       refX="0"
       id="Arrow1Mstart-2"
       style="overflow:visible">
      <path
         inkscape:connector-curvature="0"
         id="path6043-6"
         d="M 0,0 5,-5 -12.5,0 5,5 0,0 z"
         style="fill-rule:evenodd;stroke:#000000;stroke-width:1pt"
         transform="matrix(0.4,0,0,0.4,4,0)" />
    </marker>
    <marker
       inkscape:stockid="Arrow1Mend"
       orient="auto"
       refY="0"
       refX="0"
       id="marker3619-5"
       style="overflow:visible">
      <path
         id="path3621-7"
         d="M 0,0 5,-5 -12.5,0 5,5 0,0 z"
         style="fill-rule:evenodd;stroke:#000000;stroke-width:1pt"
         transform="matrix(-0.4,0,0,-0.4,-4,0)"
         inkscape:connector-curvature="0" />
    </marker>
  </defs>
  <sodipodi:namedview
     id="base"
     pagecolor="#ffffff"
     bordercolor="#666666"
     borderopacity="1.0"
     inkscape:pageopacity="0.0"
     inkscape:pageshadow="2"
     inkscape:zoom="2.043934"
     inkscape:cx="229.11113"
     inkscape:cy="71.028009"
     inkscape:document-units="in"
     inkscape:current-layer="layer2"
     showgrid="false"
     fit-margin-top="0"
     fit-margin-left="0"
     fit-margin-right="0"
     fit-margin-bottom="0"
     inkscape:snap-center="true"
     inkscape:snap-global="false"
     inkscape:window-width="1440"
     inkscape:window-height="818"
     inkscape:window-x="768"
     inkscape:window-y="25"
     inkscape:window-maximized="1"
     units="in" />
  <metadata
     id="metadata7">
    <rdf:RDF>
      <cc:Work
         rdf:about="">
        <dc:format>image/svg+xml</dc:format>
        <dc:type
           rdf:resource="http://purl.org/dc/dcmitype/StillImage" />
        <dc:title></dc:title>
      </cc:Work>
    </rdf:RDF>
  </metadata>
  <g
     inkscape:groupmode="layer"
     id="layer2"
     inkscape:label="Layer"
     style="display:inline"
     transform="translate(6.1491289,-691.83768)">
    <g
       transform="matrix(0.23801704,0,0,0.23801704,15.573194,699.52253)"
       id="g9563" />
    <text
       xml:space="preserve"
       style="font-size:7.34261084px;font-style:normal;font-variant:normal;font-weight:bold;font-stretch:normal;text-indent:0;text-align:start;text-decoration:none;line-height:125%;letter-spacing:normal;word-spacing:normal;text-transform:none;direction:ltr;block-progression:tb;writing-mode:lr-tb;text-anchor:start;baseline-shift:baseline;color:#000000;fill:#808080;fill-opacity:1;fill-rule:nonzero;stroke:#000000;stroke-width:0.26017123;stroke-linecap:butt;stroke-linejoin:miter;stroke-miterlimit:4;stroke-opacity:1;stroke-dasharray:none;stroke-dashoffset:0;marker:none;marker-end:url(#Arrow1Mend);visibility:visible;display:inline;overflow:visible;enable-background:accumulate;font-family:Nimbus Sans L;-inkscape-font-specification:Nimbus Sans L Bold"
       x="149.32204"
       y="685.00232"
       id="text5640"
       sodipodi:linespacing="125%"><tspan
         sodipodi:role="line"
         id="tspan5642"
         x="149.32204"
         y="685.00232"
         style="stroke-width:0.26017123" /></text>
    <text
       xml:space="preserve"
       style="font-size:6.66447735px;font-style:italic;font-variant:normal;font-weight:normal;font-stretch:normal;text-indent:0;text-align:center;text-decoration:none;line-height:125%;letter-spacing:normal;word-spacing:normal;text-transform:none;direction:ltr;block-progression:tb;writing-mode:lr-tb;text-anchor:middle;baseline-shift:baseline;color:#000000;fill:#ffffff;fill-opacity:1;fill-rule:evenodd;stroke:#000000;stroke-width:0.6664477;stroke-linecap:butt;stroke-linejoin:miter;stroke-miterlimit:4;stroke-opacity:1;stroke-dasharray:none;stroke-dashoffset:0;marker:none;visibility:visible;display:inline;overflow:visible;enable-background:accumulate;font-family:Times New Roman;-inkscape-font-specification:'Times New Roman, Italic'"
       x="97.250648"
       y="735.21692"
       id="text16302"
       sodipodi:linespacing="125%"><tspan
         sodipodi:role="line"
         id="tspan16304"
         x="97.250648"
         y="735.21692"
         style="stroke-width:0.6664477" /></text>
    <text
       xml:space="preserve"
       style="font-size:9px;font-style:normal;font-variant:normal;font-weight:bold;font-stretch:normal;text-indent:0;text-align:start;text-decoration:none;line-height:125%;letter-spacing:normal;word-spacing:normal;text-transform:none;direction:ltr;block-progression:tb;writing-mode:lr-tb;text-anchor:start;baseline-shift:baseline;color:#000000;fill:#000000;fill-opacity:1;fill-rule:evenodd;stroke:none;stroke-width:0.99000001;marker:none;visibility:visible;display:inline;overflow:visible;enable-background:accumulate;font-family:Nimbus Sans L;-inkscape-font-specification:Nimbus Sans L Bold"
       x="441.90594"
       y="36.994225"
       id="text6991"
       sodipodi:linespacing="125%"
       transform="translate(-26.279223,671.106)"><tspan
         sodipodi:role="line"
         id="tspan6993"
         x="441.90594"
         y="36.994225" /></text>
    <flowRoot
       xml:space="preserve"
       id="flowRoot6995"
       style="font-size:9px;font-style:normal;font-variant:normal;font-weight:bold;font-stretch:normal;text-indent:0;text-align:justify;text-decoration:none;line-height:125%;letter-spacing:normal;word-spacing:normal;text-transform:none;direction:ltr;block-progression:tb;writing-mode:lr-tb;text-anchor:start;baseline-shift:baseline;color:#000000;fill:#000000;fill-opacity:1;fill-rule:evenodd;stroke:none;stroke-width:0.99000001;marker:none;visibility:visible;display:inline;overflow:visible;enable-background:accumulate;font-family:Nimbus Sans L;-inkscape-font-specification:Nimbus Sans L Bold"
       transform="translate(-39.97901,668.99834)"><flowRegion
         id="flowRegion6997"><rect
           id="rect6999"
           width="124.35188"
           height="34.07383"
           x="426.80106"
           y="10.648478"
           style="text-align:justify;text-anchor:start" /></flowRegion><flowPara
         id="flowPara7001" /></flowRoot>    <path
       sodipodi:type="arc"
       style="color:#000000;fill:#cccccc;fill-opacity:1;stroke:#000000;stroke-width:0.44114646;stroke-miterlimit:4;stroke-dasharray:none;marker:none;visibility:visible;display:inline;overflow:visible;enable-background:accumulate"
       id="path6605-2-8-3-4-8"
       sodipodi:cx="507.8663"
       sodipodi:cy="193.60768"
       sodipodi:rx="133.27765"
       sodipodi:ry="141.77414"
       d="m 641.14395,193.60768 c 0,78.2997 -59.67043,141.77414 -133.27765,141.77414 -73.60721,0 -133.27765,-63.47444 -133.27765,-141.77414 0,-78.29969 59.67044,-141.774138 133.27765,-141.774138 73.60722,0 133.27765,63.474448 133.27765,141.774138 z"
       transform="matrix(0.9657451,0,0,0.36015585,-367.7762,673.29961)" />
    <path
       sodipodi:type="arc"
       style="color:#000000;fill:#808080;stroke:#000000;stroke-width:0.44114646;stroke-linecap:butt;stroke-linejoin:miter;stroke-miterlimit:4;stroke-opacity:1;stroke-dasharray:none;stroke-dashoffset:0;marker:none;visibility:visible;display:inline;overflow:visible;enable-background:accumulate"
       id="path6605-2-8-3-7"
       sodipodi:cx="507.8663"
       sodipodi:cy="193.60768"
       sodipodi:rx="27.329659"
       sodipodi:ry="27.329659"
       d="m 535.19596,193.60768 c 0,15.09375 -12.2359,27.32966 -27.32966,27.32966 -15.09375,0 -27.32966,-12.23591 -27.32966,-27.32966 0,-15.09375 12.23591,-27.32966 27.32966,-27.32966 15.09376,0 27.32966,12.23591 27.32966,27.32966 z"
       transform="matrix(0.9657451,0,0,0.36015585,-414.89588,672.12893)" />
    <path
       transform="matrix(0.65826982,0,0,0.65826982,-18.88953,648.7063)"
       sodipodi:type="arc"
       style="color:#000000;fill:#ff0000;fill-opacity:1;fill-rule:evenodd;stroke:#000000;stroke-width:2.20229483;marker:none;visibility:visible;display:inline;overflow:visible;enable-background:accumulate"
       id="path2985-54-8-6"
       sodipodi:cx="118.18785"
       sodipodi:cy="142.21474"
       sodipodi:rx="7.0710678"
       sodipodi:ry="7.0710678"
       d="m 125.25892,142.21474 c 0,3.90524 -3.16583,7.07106 -7.07107,7.07106 -3.90524,0 -7.07107,-3.16582 -7.07107,-7.07106 0,-3.90525 3.16583,-7.07107 7.07107,-7.07107 3.90524,0 7.07107,3.16582 7.07107,7.07107 z" />
    <path
       sodipodi:type="arc"
       style="opacity:0.89830508;color:#000000;fill:#0197fd;fill-opacity:1;fill-rule:evenodd;stroke:#000000;stroke-width:4.32000017;stroke-miterlimit:4;stroke-dasharray:none;marker:none;visibility:visible;display:inline;overflow:visible;enable-background:accumulate"
       id="path5769-6"
       sodipodi:cx="785.22144"
       sodipodi:cy="230.38475"
       sodipodi:rx="17.537941"
       sodipodi:ry="17.537941"
       d="m 802.75938,230.38475 c 0,9.68594 -7.85201,17.53794 -17.53794,17.53794 -9.68594,0 -17.53795,-7.852 -17.53795,-17.53794 0,-9.68594 7.85201,-17.53794 17.53795,-17.53794 9.68593,0 17.53794,7.852 17.53794,17.53794 z"
       transform="matrix(0.36713051,0,0,0.36713051,-120.44114,671.21187)" />
    <path
       style="fill:none;stroke:#000000;stroke-width:1px;stroke-linecap:butt;stroke-linejoin:miter;stroke-opacity:1;display:inline"
       d="m 122.86947,693.13777 c -17.66865,31.67999 -10.22657,68.4705 4.47102,97.86569"
       id="path4821"
       inkscape:connector-curvature="0" />
    <path
       style="fill:none;stroke:#000000;stroke-width:1;stroke-linecap:butt;stroke-linejoin:miter;stroke-miterlimit:4;stroke-opacity:1;stroke-dasharray:3, 3;stroke-dashoffset:0;display:inline"
       d="m 144.05195,694.71441 c -17.66865,31.67999 -10.22657,68.4705 4.47102,97.86569"
       id="path4821-0-6-4"
       inkscape:connector-curvature="0" />
    <path
       style="fill:none;stroke:#000000;stroke-width:1;stroke-linecap:butt;stroke-linejoin:miter;stroke-miterlimit:4;stroke-opacity:1;stroke-dasharray:3, 3;stroke-dashoffset:0;display:inline"
       d="m 167.18514,783.83858 c -7.07908,-13.8042 -15.37005,-30.1847 -12.21898,-51.63503 0.79308,-11.16947 6.28314,-24.03227 9.45987,-32.71533"
       id="path7247-5"
       inkscape:connector-curvature="0" />
    <path
       style="fill:none;stroke:#000000;stroke-width:1;stroke-linecap:butt;stroke-linejoin:miter;stroke-miterlimit:4;stroke-opacity:1;stroke-dasharray:3, 3;stroke-dashoffset:0;display:inline"
       d="m 188.86397,779.89698 c -7.34545,-12.35373 -16.33343,-27.25101 -14.18978,-46.90511 1.10247,-11.17093 4.9798,-19.14118 8.27739,-27.59124"
       id="path7249-4"
       inkscape:connector-curvature="0" />
    <path
       style="fill:none;stroke:#000000;stroke-width:1;stroke-linecap:butt;stroke-linejoin:miter;stroke-miterlimit:4;stroke-opacity:1;stroke-dasharray:3, 3;stroke-dashoffset:0;display:inline"
       d="m 206.99536,775.95537 c -5.32201,-10.37793 -13.43063,-27.16851 -13.7478,-38.59562 -0.31717,-11.42711 5.07628,-26.83504 5.07628,-26.83504"
       id="path7251-3"
       inkscape:connector-curvature="0"
       sodipodi:nodetypes="czc" />
    <path
       sodipodi:type="arc"
       style="opacity:0.89830508;color:#000000;fill:#0197fd;fill-opacity:1;fill-rule:evenodd;stroke:#000000;stroke-width:4.32000017;stroke-miterlimit:4;stroke-dasharray:none;marker:none;visibility:visible;display:inline;overflow:visible;enable-background:accumulate"
       id="path5769-6-1"
       sodipodi:cx="785.22144"
       sodipodi:cy="230.38475"
       sodipodi:rx="17.537941"
       sodipodi:ry="17.537941"
       d="m 802.75938,230.38475 c 0,9.68594 -7.85201,17.53794 -17.53794,17.53794 -9.68594,0 -17.53795,-7.852 -17.53795,-17.53794 0,-9.68594 7.85201,-17.53794 17.53795,-17.53794 9.68593,0 17.53794,7.852 17.53794,17.53794 z"
       transform="matrix(0.36713051,0,0,0.36713051,-138.43666,621.21351)" />
    <path
       sodipodi:type="arc"
       style="opacity:0.89830508;color:#000000;fill:#0197fd;fill-opacity:1;fill-rule:evenodd;stroke:#000000;stroke-width:4.32000017;stroke-miterlimit:4;stroke-dasharray:none;marker:none;visibility:visible;display:inline;overflow:visible;enable-background:accumulate"
       id="path5769-6-6"
       sodipodi:cx="785.22144"
       sodipodi:cy="230.38475"
       sodipodi:rx="17.537941"
       sodipodi:ry="17.537941"
       d="m 802.75938,230.38475 c 0,9.68594 -7.85201,17.53794 -17.53794,17.53794 -9.68594,0 -17.53795,-7.852 -17.53795,-17.53794 0,-9.68594 7.85201,-17.53794 17.53795,-17.53794 9.68593,0 17.53794,7.852 17.53794,17.53794 z"
       transform="matrix(0.36713051,0,0,0.36713051,-95.86732,683.09672)" />
    <path
       style="color:#000000;fill:none;stroke:#000000;stroke-width:1;stroke-linecap:butt;stroke-linejoin:miter;stroke-miterlimit:4;stroke-opacity:1;stroke-dasharray:3, 3;stroke-dashoffset:0;marker:none;visibility:visible;display:inline;overflow:visible;enable-background:accumulate"
       d="m 213.83679,712.47037 c -8.98216,19.71754 -3.21293,40.75853 6.96784,57.13629"
       id="path3209"
       inkscape:connector-curvature="0" />
    <path
       style="color:#000000;fill:none;stroke:#000000;stroke-width:1;stroke-linecap:butt;stroke-linejoin:miter;stroke-miterlimit:4;stroke-opacity:1;stroke-dasharray:3, 3;stroke-dashoffset:0;marker:none;visibility:visible;display:inline;overflow:visible;enable-background:accumulate"
       d="m 228.05119,716.09365 c -4.90657,15.93381 0.39584,30.37406 7.52527,42.36447"
       id="path3211"
       inkscape:connector-curvature="0" />
    <path
       style="color:#000000;fill:none;stroke:#000000;stroke-width:1;stroke-linecap:butt;stroke-linejoin:miter;stroke-miterlimit:4;stroke-opacity:1;stroke-dasharray:3, 3;stroke-dashoffset:0;marker:none;visibility:visible;display:inline;overflow:visible;enable-background:accumulate"
       d="m 242.26558,726.68477 c -1.90398,7.18507 0.82439,14.44374 2.22971,20.34609"
       id="path3213"
       inkscape:connector-curvature="0" />
    <path
       sodipodi:type="arc"
       style="opacity:0.89830508;color:#000000;fill:#ff8080;fill-opacity:1;fill-rule:evenodd;stroke:#000000;stroke-width:4.32000017;stroke-miterlimit:4;stroke-dasharray:none;marker:none;visibility:visible;display:inline;overflow:visible;enable-background:accumulate"
       id="path5769-48-9-2-3"
       sodipodi:cx="785.22144"
       sodipodi:cy="230.38475"
       sodipodi:rx="17.537941"
       sodipodi:ry="17.537941"
       d="m 802.75938,230.38475 c 0,9.68594 -7.85201,17.53794 -17.53794,17.53794 -9.68594,0 -17.53795,-7.852 -17.53795,-17.53794 0,-9.68594 7.85201,-17.53794 17.53795,-17.53794 9.68593,0 17.53794,7.852 17.53794,17.53794 z"
       transform="matrix(0.21914093,0.25056608,-0.25056608,0.21914093,106.50839,471.94102)" />
    <path
       sodipodi:type="arc"
       style="opacity:0.89830508;color:#000000;fill:#ff8080;fill-opacity:1;fill-rule:evenodd;stroke:#000000;stroke-width:4.32000017;stroke-miterlimit:4;stroke-dasharray:none;marker:none;visibility:visible;display:inline;overflow:visible;enable-background:accumulate"
       id="path5769-48-9-2-5"
       sodipodi:cx="785.22144"
       sodipodi:cy="230.38475"
       sodipodi:rx="17.537941"
       sodipodi:ry="17.537941"
       d="m 802.75938,230.38475 c 0,9.68594 -7.85201,17.53794 -17.53794,17.53794 -9.68594,0 -17.53795,-7.852 -17.53795,-17.53794 0,-9.68594 7.85201,-17.53794 17.53795,-17.53794 9.68593,0 17.53794,7.852 17.53794,17.53794 z"
       transform="matrix(0.21914093,0.25056608,-0.25056608,0.21914093,104.35884,480.84268)" />
    <path
       sodipodi:type="arc"
       style="opacity:0.89830508;color:#000000;fill:#ff8080;fill-opacity:1;fill-rule:evenodd;stroke:#000000;stroke-width:4.32000017;stroke-miterlimit:4;stroke-dasharray:none;marker:none;visibility:visible;display:inline;overflow:visible;enable-background:accumulate"
       id="path5769-48-9-2-8"
       sodipodi:cx="785.22144"
       sodipodi:cy="230.38475"
       sodipodi:rx="17.537941"
       sodipodi:ry="17.537941"
       d="m 802.75938,230.38475 c 0,9.68594 -7.85201,17.53794 -17.53794,17.53794 -9.68594,0 -17.53795,-7.852 -17.53795,-17.53794 0,-9.68594 7.85201,-17.53794 17.53795,-17.53794 9.68593,0 17.53794,7.852 17.53794,17.53794 z"
       transform="matrix(0.21914093,0.25056608,-0.25056608,0.21914093,55.43779,465.48396)" />
    <path
       sodipodi:type="arc"
       style="opacity:0.89830508;color:#000000;fill:#ff8080;fill-opacity:1;fill-rule:evenodd;stroke:#000000;stroke-width:4.32000017;stroke-miterlimit:4;stroke-dasharray:none;marker:none;visibility:visible;display:inline;overflow:visible;enable-background:accumulate"
       id="path5769-48-9-2-7"
       sodipodi:cx="785.22144"
       sodipodi:cy="230.38475"
       sodipodi:rx="17.537941"
       sodipodi:ry="17.537941"
       d="m 802.75938,230.38475 c 0,9.68594 -7.85201,17.53794 -17.53794,17.53794 -9.68594,0 -17.53795,-7.852 -17.53795,-17.53794 0,-9.68594 7.85201,-17.53794 17.53795,-17.53794 9.68593,0 17.53794,7.852 17.53794,17.53794 z"
       transform="matrix(0.21914093,0.25056608,-0.25056608,0.21914093,10.28198,489.77038)" />
    <path
       sodipodi:type="arc"
       style="opacity:0.89830508;color:#000000;fill:#ff8080;fill-opacity:1;fill-rule:evenodd;stroke:#000000;stroke-width:4.32000017;stroke-miterlimit:4;stroke-dasharray:none;marker:none;visibility:visible;display:inline;overflow:visible;enable-background:accumulate"
       id="path5769-48-9-2-34"
       sodipodi:cx="785.22144"
       sodipodi:cy="230.38475"
       sodipodi:rx="17.537941"
       sodipodi:ry="17.537941"
       d="m 802.75938,230.38475 c 0,9.68594 -7.85201,17.53794 -17.53794,17.53794 -9.68594,0 -17.53795,-7.852 -17.53795,-17.53794 0,-9.68594 7.85201,-17.53794 17.53795,-17.53794 9.68593,0 17.53794,7.852 17.53794,17.53794 z"
       transform="matrix(0.21914093,0.25056608,-0.25056608,0.21914093,119.47235,479.63952)" />
    <path
       sodipodi:type="arc"
       style="opacity:0.89830508;color:#000000;fill:#ff8080;fill-opacity:1;fill-rule:evenodd;stroke:#000000;stroke-width:4.32000017;stroke-miterlimit:4;stroke-dasharray:none;marker:none;visibility:visible;display:inline;overflow:visible;enable-background:accumulate"
       id="path5769-48-9-2-33-0"
       sodipodi:cx="785.22144"
       sodipodi:cy="230.38475"
       sodipodi:rx="17.537941"
       sodipodi:ry="17.537941"
       d="m 802.75938,230.38475 c 0,9.68594 -7.85201,17.53794 -17.53794,17.53794 -9.68594,0 -17.53795,-7.852 -17.53795,-17.53794 0,-9.68594 7.85201,-17.53794 17.53795,-17.53794 9.68593,0 17.53794,7.852 17.53794,17.53794 z"
       transform="matrix(0.21914093,0.25056608,-0.25056608,0.21914093,71.47041,481.01802)" />
    <path
       sodipodi:type="arc"
       style="opacity:0.89830508;color:#000000;fill:#ff8080;fill-opacity:1;fill-rule:evenodd;stroke:#000000;stroke-width:4.32000017;stroke-miterlimit:4;stroke-dasharray:none;marker:none;visibility:visible;display:inline;overflow:visible;enable-background:accumulate"
       id="path5769-48-9-2-33-4"
       sodipodi:cx="785.22144"
       sodipodi:cy="230.38475"
       sodipodi:rx="17.537941"
       sodipodi:ry="17.537941"
       d="m 802.75938,230.38475 c 0,9.68594 -7.85201,17.53794 -17.53794,17.53794 -9.68594,0 -17.53795,-7.852 -17.53795,-17.53794 0,-9.68594 7.85201,-17.53794 17.53795,-17.53794 9.68593,0 17.53794,7.852 17.53794,17.53794 z"
       transform="matrix(0.21914093,0.25056608,-0.25056608,0.21914093,51.22705,483.93647)" />
    <path
       sodipodi:type="arc"
       style="opacity:0.89830508;color:#000000;fill:#ff8080;fill-opacity:1;fill-rule:evenodd;stroke:#000000;stroke-width:4.32000017;stroke-miterlimit:4;stroke-dasharray:none;marker:none;visibility:visible;display:inline;overflow:visible;enable-background:accumulate"
       id="path5769-48-9-2-33-5"
       sodipodi:cx="785.22144"
       sodipodi:cy="230.38475"
       sodipodi:rx="17.537941"
       sodipodi:ry="17.537941"
       d="m 802.75938,230.38475 c 0,9.68594 -7.85201,17.53794 -17.53794,17.53794 -9.68594,0 -17.53795,-7.852 -17.53795,-17.53794 0,-9.68594 7.85201,-17.53794 17.53795,-17.53794 9.68593,0 17.53794,7.852 17.53794,17.53794 z"
       transform="matrix(0.21914093,0.25056608,-0.25056608,0.21914093,87.88581,480.53728)" />
    <path
       sodipodi:type="arc"
       style="opacity:0.89830508;color:#000000;fill:#ff8080;fill-opacity:1;fill-rule:evenodd;stroke:#000000;stroke-width:4.32000017;stroke-miterlimit:4;stroke-dasharray:none;marker:none;visibility:visible;display:inline;overflow:visible;enable-background:accumulate"
       id="path5769-48-9-2-70"
       sodipodi:cx="785.22144"
       sodipodi:cy="230.38475"
       sodipodi:rx="17.537941"
       sodipodi:ry="17.537941"
       d="m 802.75938,230.38475 c 0,9.68594 -7.85201,17.53794 -17.53794,17.53794 -9.68594,0 -17.53795,-7.852 -17.53795,-17.53794 0,-9.68594 7.85201,-17.53794 17.53795,-17.53794 9.68593,0 17.53794,7.852 17.53794,17.53794 z"
       transform="matrix(0.21914093,0.25056608,-0.25056608,0.21914093,29.92732,487.59691)" />
    <path
       sodipodi:type="arc"
       style="opacity:0.89830508;color:#000000;fill:#ff8080;fill-opacity:1;fill-rule:evenodd;stroke:#000000;stroke-width:4.32000017;stroke-miterlimit:4;stroke-dasharray:none;marker:none;visibility:visible;display:inline;overflow:visible;enable-background:accumulate"
       id="path5769-48-9-1"
       sodipodi:cx="785.22144"
       sodipodi:cy="230.38475"
       sodipodi:rx="17.537941"
       sodipodi:ry="17.537941"
       d="m 802.75938,230.38475 c 0,9.68594 -7.85201,17.53794 -17.53794,17.53794 -9.68594,0 -17.53795,-7.852 -17.53795,-17.53794 0,-9.68594 7.85201,-17.53794 17.53795,-17.53794 9.68593,0 17.53794,7.852 17.53794,17.53794 z"
       transform="matrix(0.21914093,0.25056608,-0.25056608,0.21914093,70.88395,462.35976)" />
    <path
       sodipodi:type="arc"
       style="opacity:0.89830508;color:#000000;fill:#ff8080;fill-opacity:1;fill-rule:evenodd;stroke:#000000;stroke-width:4.32000017;stroke-miterlimit:4;stroke-dasharray:none;marker:none;visibility:visible;display:inline;overflow:visible;enable-background:accumulate"
       id="path5769-48-9"
       sodipodi:cx="785.22144"
       sodipodi:cy="230.38475"
       sodipodi:rx="17.537941"
       sodipodi:ry="17.537941"
       d="m 802.75938,230.38475 c 0,9.68594 -7.85201,17.53794 -17.53794,17.53794 -9.68594,0 -17.53795,-7.852 -17.53795,-17.53794 0,-9.68594 7.85201,-17.53794 17.53795,-17.53794 9.68593,0 17.53794,7.852 17.53794,17.53794 z"
       transform="matrix(0.21914093,0.25056608,-0.25056608,0.21914093,90.78913,462.22862)" />
    <path
       sodipodi:type="arc"
       style="opacity:0.89830508;color:#000000;fill:#ff8080;fill-opacity:1;fill-rule:evenodd;stroke:#000000;stroke-width:4.32000017;stroke-miterlimit:4;stroke-dasharray:none;marker:none;visibility:visible;display:inline;overflow:visible;enable-background:accumulate"
       id="path5769-48-9-2-80"
       sodipodi:cx="785.22144"
       sodipodi:cy="230.38475"
       sodipodi:rx="17.537941"
       sodipodi:ry="17.537941"
       d="m 802.75938,230.38475 c 0,9.68594 -7.85201,17.53794 -17.53794,17.53794 -9.68594,0 -17.53795,-7.852 -17.53795,-17.53794 0,-9.68594 7.85201,-17.53794 17.53795,-17.53794 9.68593,0 17.53794,7.852 17.53794,17.53794 z"
       transform="matrix(0.21914093,0.25056608,-0.25056608,0.21914093,87.24125,489.5117)" />
    <path
       style="fill:none;stroke:#000000;stroke-width:1px;stroke-linecap:butt;stroke-linejoin:miter;stroke-opacity:1"
       d="m 185.34085,709.67911 20.19911,-0.48672"
       id="path3401"
       inkscape:connector-curvature="0"
       sodipodi:nodetypes="cc" />
    <path
       style="fill:none;stroke:#000000;stroke-width:1px;stroke-linecap:butt;stroke-linejoin:miter;stroke-opacity:1"
       d="m 169.2789,712.59947 15.81858,-2.79868"
       id="path3409"
       inkscape:connector-curvature="0" />
    <path
       style="fill:none;stroke:#000000;stroke-width:1px;stroke-linecap:butt;stroke-linejoin:miter;stroke-opacity:1"
       d="m 218.31651,728.05301 15.45354,-1.70354"
       id="path3411"
       inkscape:connector-curvature="0" />
    <path
       style="fill:none;stroke:#000000;stroke-width:1px;stroke-linecap:butt;stroke-linejoin:miter;stroke-opacity:1"
       d="m 220.50678,719.04858 -18.13054,8.03097 16.06195,1.09514"
       id="path3413"
       inkscape:connector-curvature="0" />
    <path
       style="fill:none;stroke:#000000;stroke-width:1px;stroke-linecap:butt;stroke-linejoin:miter;stroke-opacity:1"
       d="m 202.49793,726.95787 -16.54868,1.09514 15.45354,9.36947"
       id="path3419"
       inkscape:connector-curvature="0" />
    <path
       style="fill:none;stroke:#000000;stroke-width:1px;stroke-linecap:butt;stroke-linejoin:miter;stroke-opacity:1"
       d="m 165.50677,731.82513 19.46903,-4.01549"
       id="path3421"
       inkscape:connector-curvature="0" />
    <path
       style="fill:none;stroke:#000000;stroke-width:1px;stroke-linecap:butt;stroke-linejoin:miter;stroke-opacity:1"
       d="m 124.25677,737.3008 19.95575,-2.43363 21.29425,-3.16372"
       id="path3423"
       inkscape:connector-curvature="0" />
    <path
       sodipodi:type="arc"
       style="opacity:0.89830508;color:#000000;fill:#ff8080;fill-opacity:1;fill-rule:evenodd;stroke:#000000;stroke-width:4.32000017;stroke-miterlimit:4;stroke-dasharray:none;marker:none;visibility:visible;display:inline;overflow:visible;enable-background:accumulate"
       id="path5769-48-9-2-3-9"
       sodipodi:cx="785.22144"
       sodipodi:cy="230.38475"
       sodipodi:rx="17.537941"
       sodipodi:ry="17.537941"
       d="m 802.75938,230.38475 c 0,9.68594 -7.85201,17.53794 -17.53794,17.53794 -9.68594,0 -17.53795,-7.852 -17.53795,-17.53794 0,-9.68594 7.85201,-17.53794 17.53795,-17.53794 9.68593,0 17.53794,7.852 17.53794,17.53794 z"
       transform="matrix(0.21914093,0.25056608,-0.25056608,0.21914093,14.65429,527.59434)" />
    <path
       sodipodi:type="arc"
       style="opacity:0.89830508;color:#000000;fill:#ff8080;fill-opacity:1;fill-rule:evenodd;stroke:#000000;stroke-width:4.32000017;stroke-miterlimit:4;stroke-dasharray:none;marker:none;visibility:visible;display:inline;overflow:visible;enable-background:accumulate"
       id="path5769-48-9-2-3-3"
       sodipodi:cx="785.22144"
       sodipodi:cy="230.38475"
       sodipodi:rx="17.537941"
       sodipodi:ry="17.537941"
       d="m 802.75938,230.38475 c 0,9.68594 -7.85201,17.53794 -17.53794,17.53794 -9.68594,0 -17.53795,-7.852 -17.53795,-17.53794 0,-9.68594 7.85201,-17.53794 17.53795,-17.53794 9.68593,0 17.53794,7.852 17.53794,17.53794 z"
       transform="matrix(0.21914093,0.25056608,-0.25056608,0.21914093,35.34013,524.91734)" />
    <path
       sodipodi:type="arc"
       style="opacity:0.89830508;color:#000000;fill:#ff8080;fill-opacity:1;fill-rule:evenodd;stroke:#000000;stroke-width:4.32000017;stroke-miterlimit:4;stroke-dasharray:none;marker:none;visibility:visible;display:inline;overflow:visible;enable-background:accumulate"
       id="path5769-48-9-2-3-7"
       sodipodi:cx="785.22144"
       sodipodi:cy="230.38475"
       sodipodi:rx="17.537941"
       sodipodi:ry="17.537941"
       d="m 802.75938,230.38475 c 0,9.68594 -7.85201,17.53794 -17.53794,17.53794 -9.68594,0 -17.53795,-7.852 -17.53795,-17.53794 0,-9.68594 7.85201,-17.53794 17.53795,-17.53794 9.68593,0 17.53794,7.852 17.53794,17.53794 z"
       transform="matrix(0.21914093,0.25056608,-0.25056608,0.21914093,59.43306,527.10761)" />
    <path
       style="fill:none;stroke:#000000;stroke-width:1px;stroke-linecap:butt;stroke-linejoin:miter;stroke-opacity:1"
       d="m 169.64344,712.53003 -25.5531,22.14602"
       id="path4027"
       inkscape:connector-curvature="0" />
    <path
       style="fill:none;stroke:#000000;stroke-width:1px;stroke-linecap:butt;stroke-linejoin:miter;stroke-opacity:1"
       d="m 149.44432,772.39729 24.33629,1.70354"
       id="path4029"
       inkscape:connector-curvature="0"
       sodipodi:nodetypes="cc" />
    <path
       style="fill:none;stroke:#ff0000;stroke-width:1px;stroke-linecap:butt;stroke-linejoin:miter;stroke-opacity:1"
       d="m 167.9399,756.57871 -17.76549,15.57522 -20.9292,2.67699 -30.907091,0 -1.9469,-11.43805 -17.52213,0.48672 -5.11062,-9.97788 -15.33186,-11.92478"
       id="path4031"
       inkscape:connector-curvature="0" />
    <text
       xml:space="preserve"
       style="font-size:13px;font-style:normal;font-variant:normal;font-weight:bold;font-stretch:normal;text-indent:0;text-align:center;text-decoration:none;line-height:125%;letter-spacing:normal;word-spacing:normal;text-transform:none;direction:ltr;block-progression:tb;writing-mode:lr-tb;text-anchor:middle;baseline-shift:baseline;color:#000000;fill:#000000;fill-opacity:1;fill-rule:evenodd;stroke:none;stroke-width:1;marker:none;visibility:visible;display:inline;overflow:visible;enable-background:accumulate;font-family:Nimbus Sans L;-inkscape-font-specification:Nimbus Sans L Bold"
       x="67.187683"
       y="788.94598"
       id="text4033"
       sodipodi:linespacing="125%"><tspan
         sodipodi:role="line"
         id="tspan4035"
         x="67.187683"
         y="788.94598">Solution found!</tspan></text>
  </g>
  <g
     inkscape:groupmode="layer"
     id="layer1"
     inkscape:label="Layer#1"
     transform="translate(-9.200932,-18.247783)" />
</svg>
