<?xml version="1.0" encoding="UTF-8" standalone="no"?>
<!-- Created with Inkscape (http://www.inkscape.org/) -->

<svg
   xmlns:dc="http://purl.org/dc/elements/1.1/"
   xmlns:cc="http://creativecommons.org/ns#"
   xmlns:rdf="http://www.w3.org/1999/02/22-rdf-syntax-ns#"
   xmlns:svg="http://www.w3.org/2000/svg"
   xmlns="http://www.w3.org/2000/svg"
   xmlns:sodipodi="http://sodipodi.sourceforge.net/DTD/sodipodi-0.dtd"
   xmlns:inkscape="http://www.inkscape.org/namespaces/inkscape"
   width="131.98686"
   height="209.54449"
   id="svg2"
   version="1.1"
   inkscape:version="0.48.4 r9939"
   sodipodi:docname="a1.svg">
  <defs
     id="defs4">
    <marker
       inkscape:stockid="Arrow1Mend"
       orient="auto"
       refY="0"
       refX="0"
       id="Arrow1Mend"
       style="overflow:visible">
      <path
         id="path3956"
         d="M 0,0 5,-5 -12.5,0 5,5 0,0 z"
         style="fill-rule:evenodd;stroke:#000000;stroke-width:1pt"
         transform="matrix(-0.4,0,0,-0.4,-4,0)"
         inkscape:connector-curvature="0" />
    </marker>
    <marker
       inkscape:stockid="Arrow1Lend"
       orient="auto"
       refY="0"
       refX="0"
       id="Arrow1Lend"
       style="overflow:visible">
      <path
         id="path3950"
         d="M 0,0 5,-5 -12.5,0 5,5 0,0 z"
         style="fill-rule:evenodd;stroke:#000000;stroke-width:1pt"
         transform="matrix(-0.8,0,0,-0.8,-10,0)"
         inkscape:connector-curvature="0" />
    </marker>
  </defs>
  <sodipodi:namedview
     id="base"
     pagecolor="#ffffff"
     bordercolor="#666666"
     borderopacity="1.0"
     inkscape:pageopacity="0.0"
     inkscape:pageshadow="2"
     inkscape:zoom="1.979899"
     inkscape:cx="80.072986"
     inkscape:cy="80.015484"
     inkscape:document-units="px"
     inkscape:current-layer="layer1"
     showgrid="false"
     fit-margin-top="0"
     fit-margin-left="0"
     fit-margin-right="0"
     fit-margin-bottom="0"
     inkscape:window-width="1440"
     inkscape:window-height="818"
     inkscape:window-x="768"
     inkscape:window-y="25"
     inkscape:window-maximized="1" />
  <metadata
     id="metadata7">
    <rdf:RDF>
      <cc:Work
         rdf:about="">
        <dc:format>image/svg+xml</dc:format>
        <dc:type
           rdf:resource="http://purl.org/dc/dcmitype/StillImage" />
        <dc:title />
      </cc:Work>
    </rdf:RDF>
  </metadata>
  <g
     inkscape:label="レイヤー 1"
     inkscape:groupmode="layer"
     id="layer1"
     transform="translate(-50.427518,-584.8637)">
    <path
       transform="matrix(0.33076926,0,0,0.33076926,109.14245,368.81713)"
       sodipodi:type="arc"
       style="color:#000000;fill:#000000;fill-opacity:1;fill-rule:nonzero;stroke:none;stroke-width:0.33500001;marker:none;visibility:visible;display:inline;overflow:visible;enable-background:accumulate"
       id="path2985-2-1-1-8-79"
       sodipodi:cx="123.23861"
       sodipodi:cy="767.49915"
       sodipodi:rx="24.243662"
       sodipodi:ry="24.243662"
       d="m 147.48227,767.49915 c 0,13.3894 -10.85426,24.24366 -24.24366,24.24366 -13.38941,0 -24.243663,-10.85426 -24.243663,-24.24366 0,-13.38941 10.854253,-24.24367 24.243663,-24.24367 13.3894,0 24.24366,10.85426 24.24366,24.24367 z" />
    <path
       transform="matrix(0.33076926,0,0,0.33076926,53.864444,511.6759)"
       sodipodi:type="arc"
       style="color:#000000;fill:#000000;fill-opacity:1;fill-rule:nonzero;stroke:none;stroke-width:0.33500001;marker:none;visibility:visible;display:inline;overflow:visible;enable-background:accumulate"
       id="path2985"
       sodipodi:cx="123.23861"
       sodipodi:cy="767.49915"
       sodipodi:rx="24.243662"
       sodipodi:ry="24.243662"
       d="m 147.48227,767.49915 c 0,13.3894 -10.85426,24.24366 -24.24366,24.24366 -13.38941,0 -24.243663,-10.85426 -24.243663,-24.24366 0,-13.38941 10.854253,-24.24367 24.243663,-24.24367 13.3894,0 24.24366,10.85426 24.24366,24.24367 z" />
    <path
       transform="matrix(0.33076926,0,0,0.33076926,39.986495,458.76721)"
       sodipodi:type="arc"
       style="color:#000000;fill:#000000;fill-opacity:1;fill-rule:nonzero;stroke:none;stroke-width:0.33500001;marker:none;visibility:visible;display:inline;overflow:visible;enable-background:accumulate"
       id="path2985-2"
       sodipodi:cx="123.23861"
       sodipodi:cy="767.49915"
       sodipodi:rx="24.243662"
       sodipodi:ry="24.243662"
       d="m 147.48227,767.49915 c 0,13.3894 -10.85426,24.24366 -24.24366,24.24366 -13.38941,0 -24.243663,-10.85426 -24.243663,-24.24366 0,-13.38941 10.854253,-24.24367 24.243663,-24.24367 13.3894,0 24.24366,10.85426 24.24366,24.24367 z" />
    <path
       transform="matrix(0.33076926,0,0,0.33076926,67.384945,483.96664)"
       sodipodi:type="arc"
       style="color:#000000;fill:#000000;fill-opacity:1;fill-rule:nonzero;stroke:none;stroke-width:0.33500001;marker:none;visibility:visible;display:inline;overflow:visible;enable-background:accumulate"
       id="path2985-8"
       sodipodi:cx="123.23861"
       sodipodi:cy="767.49915"
       sodipodi:rx="24.243662"
       sodipodi:ry="24.243662"
       d="m 147.48227,767.49915 c 0,13.3894 -10.85426,24.24366 -24.24366,24.24366 -13.38941,0 -24.243663,-10.85426 -24.243663,-24.24366 0,-13.38941 10.854253,-24.24367 24.243663,-24.24367 13.3894,0 24.24366,10.85426 24.24366,24.24367 z" />
    <text
       xml:space="preserve"
       style="font-size:14px;font-style:normal;font-variant:normal;font-weight:bold;font-stretch:normal;text-indent:0;text-align:center;text-decoration:none;line-height:125%;letter-spacing:normal;word-spacing:normal;text-transform:none;direction:ltr;block-progression:tb;writing-mode:lr-tb;text-anchor:middle;baseline-shift:baseline;color:#000000;fill:#000000;fill-opacity:1;fill-rule:nonzero;stroke:none;stroke-width:0.33500001;marker:none;visibility:visible;display:inline;overflow:visible;enable-background:accumulate;font-family:'M+ 2c';-inkscape-font-specification:'M+ 2c Bold'"
       x="93.944191"
       y="794.26819"
       id="text3130"
       sodipodi:linespacing="125%"><tspan
         sodipodi:role="line"
         id="tspan3132"
         x="93.944191"
         y="794.26819">initial state</tspan></text>
    <path
       transform="matrix(0.33076926,0,0,0.33076926,66.817703,410.59848)"
       sodipodi:type="arc"
       style="color:#000000;fill:#000000;fill-opacity:1;fill-rule:nonzero;stroke:none;stroke-width:0.33500001;marker:none;visibility:visible;display:inline;overflow:visible;enable-background:accumulate"
       id="path2985-2-0"
       sodipodi:cx="123.23861"
       sodipodi:cy="767.49915"
       sodipodi:rx="24.243662"
       sodipodi:ry="24.243662"
       d="m 147.48227,767.49915 c 0,13.3894 -10.85426,24.24366 -24.24366,24.24366 -13.38941,0 -24.243663,-10.85426 -24.243663,-24.24366 0,-13.38941 10.854253,-24.24367 24.243663,-24.24367 13.3894,0 24.24366,10.85426 24.24366,24.24367 z" />
    <path
       transform="matrix(0.33076926,0,0,0.33076926,62.777092,381.30406)"
       sodipodi:type="arc"
       style="color:#000000;fill:#000000;fill-opacity:1;fill-rule:nonzero;stroke:none;stroke-width:0.33500001;marker:none;visibility:visible;display:inline;overflow:visible;enable-background:accumulate"
       id="path2985-2-1"
       sodipodi:cx="123.23861"
       sodipodi:cy="767.49915"
       sodipodi:rx="24.243662"
       sodipodi:ry="24.243662"
       d="m 147.48227,767.49915 c 0,13.3894 -10.85426,24.24366 -24.24366,24.24366 -13.38941,0 -24.243663,-10.85426 -24.243663,-24.24366 0,-13.38941 10.854253,-24.24367 24.243663,-24.24367 13.3894,0 24.24366,10.85426 24.24366,24.24367 z" />
    <path
       transform="matrix(0.33076926,0,0,0.33076926,83.990296,381.30405)"
       sodipodi:type="arc"
       style="color:#000000;fill:#000000;fill-opacity:1;fill-rule:nonzero;stroke:none;stroke-width:0.33500001;marker:none;visibility:visible;display:inline;overflow:visible;enable-background:accumulate"
       id="path2985-2-3"
       sodipodi:cx="123.23861"
       sodipodi:cy="767.49915"
       sodipodi:rx="24.243662"
       sodipodi:ry="24.243662"
       d="m 147.48227,767.49915 c 0,13.3894 -10.85426,24.24366 -24.24366,24.24366 -13.38941,0 -24.243663,-10.85426 -24.243663,-24.24366 0,-13.38941 10.854253,-24.24367 24.243663,-24.24367 13.3894,0 24.24366,10.85426 24.24366,24.24367 z" />
    <path
       transform="matrix(0.33076926,0,0,0.33076926,36.513126,410.0934)"
       sodipodi:type="arc"
       style="color:#000000;fill:#000000;fill-opacity:1;fill-rule:nonzero;stroke:none;stroke-width:0.33500001;marker:none;visibility:visible;display:inline;overflow:visible;enable-background:accumulate"
       id="path2985-2-4"
       sodipodi:cx="123.23861"
       sodipodi:cy="767.49915"
       sodipodi:rx="24.243662"
       sodipodi:ry="24.243662"
       d="m 147.48227,767.49915 c 0,13.3894 -10.85426,24.24366 -24.24366,24.24366 -13.38941,0 -24.243663,-10.85426 -24.243663,-24.24366 0,-13.38941 10.854253,-24.24367 24.243663,-24.24367 13.3894,0 24.24366,10.85426 24.24366,24.24367 z" />
    <path
       style="fill:none;stroke:#000000;stroke-width:1px;stroke-linecap:butt;stroke-linejoin:miter;stroke-opacity:1;marker-end:url(#Arrow1Lend)"
       d="m 158.08887,788.20729 0,-154.55334"
       id="path3173"
       inkscape:connector-curvature="0"
       sodipodi:nodetypes="cc" />
    <path
       style="fill:none;stroke:#000000;stroke-width:1px;stroke-linecap:butt;stroke-linejoin:miter;stroke-opacity:1;marker-end:url(#Arrow1Mend)"
       d="M 94.954339,765.47886 106.46231,745.213"
       id="path4393"
       inkscape:connector-curvature="0"
       sodipodi:nodetypes="cc" />
    <path
       style="fill:none;stroke:#000000;stroke-width:1px;stroke-linecap:butt;stroke-linejoin:miter;stroke-opacity:1;marker-end:url(#Arrow1Mend)"
       d="M 92.428958,764.46871 82.832508,719.51692 76.771593,673.0499"
       id="path4395"
       inkscape:connector-curvature="0"
       sodipodi:nodetypes="ccc" />
    <path
       style="fill:none;stroke:#000000;stroke-width:1px;stroke-linecap:butt;stroke-linejoin:miter;stroke-opacity:1;marker-end:url(#Arrow1Mend)"
       d="m 108.08632,737.69966 -0.50508,-63.13453"
       id="path4397"
       inkscape:connector-curvature="0"
       sodipodi:nodetypes="cc" />
    <path
       style="fill:none;stroke:#000000;stroke-width:1px;stroke-linecap:butt;stroke-linejoin:miter;stroke-opacity:1;marker-end:url(#Arrow1Mend)"
       d="M 83.842661,712.95093 104.55079,671.02959"
       id="path4399"
       inkscape:connector-curvature="0"
       sodipodi:nodetypes="cc" />
    <path
       style="fill:none;stroke:#000000;stroke-width:1px;stroke-linecap:butt;stroke-linejoin:miter;stroke-opacity:1;marker-end:url(#Arrow1Mend)"
       d="M 81.822356,710.42555 98.994947,641.23009"
       id="path4401"
       inkscape:connector-curvature="0"
       sodipodi:nodetypes="cc" />
    <path
       style="fill:none;stroke:#000000;stroke-width:1px;stroke-linecap:butt;stroke-linejoin:miter;stroke-opacity:1;marker-end:url(#Arrow1Mend)"
       d="m 108.08632,661.93822 11.61676,-19.19289"
       id="path4403"
       inkscape:connector-curvature="0"
       sodipodi:nodetypes="cc" />
    <path
       style="fill:none;stroke:#000000;stroke-width:1px;stroke-linecap:butt;stroke-linejoin:miter;stroke-opacity:1;marker-end:url(#Arrow1Mend)"
       d="m 107.07617,660.42299 -1.51523,-16.66751"
       id="path4957"
       inkscape:connector-curvature="0"
       sodipodi:nodetypes="cc" />
    <path
       transform="matrix(0.33076926,0,0,0.33076926,29.442058,382.81929)"
       sodipodi:type="arc"
       style="color:#000000;fill:#000000;fill-opacity:1;fill-rule:nonzero;stroke:none;stroke-width:0.33500001;marker:none;visibility:visible;display:inline;overflow:visible;enable-background:accumulate"
       id="path2985-2-1-1"
       sodipodi:cx="123.23861"
       sodipodi:cy="767.49915"
       sodipodi:rx="24.243662"
       sodipodi:ry="24.243662"
       d="m 147.48227,767.49915 c 0,13.3894 -10.85426,24.24366 -24.24366,24.24366 -13.38941,0 -24.243663,-10.85426 -24.243663,-24.24366 0,-13.38941 10.854253,-24.24367 24.243663,-24.24367 13.3894,0 24.24366,10.85426 24.24366,24.24367 z" />
    <path
       transform="matrix(0.33076926,0,0,0.33076926,47.624804,383.82944)"
       sodipodi:type="arc"
       style="color:#000000;fill:#000000;fill-opacity:1;fill-rule:nonzero;stroke:none;stroke-width:0.33500001;marker:none;visibility:visible;display:inline;overflow:visible;enable-background:accumulate"
       id="path2985-2-1-8"
       sodipodi:cx="123.23861"
       sodipodi:cy="767.49915"
       sodipodi:rx="24.243662"
       sodipodi:ry="24.243662"
       d="m 147.48227,767.49915 c 0,13.3894 -10.85426,24.24366 -24.24366,24.24366 -13.38941,0 -24.243663,-10.85426 -24.243663,-24.24366 0,-13.38941 10.854253,-24.24367 24.243663,-24.24367 13.3894,0 24.24366,10.85426 24.24366,24.24367 z" />
    <path
       transform="matrix(0.33076926,0,0,0.33076926,88.535982,413.12386)"
       sodipodi:type="arc"
       style="color:#000000;fill:#000000;fill-opacity:1;fill-rule:nonzero;stroke:none;stroke-width:0.33500001;marker:none;visibility:visible;display:inline;overflow:visible;enable-background:accumulate"
       id="path2985-2-1-3"
       sodipodi:cx="123.23861"
       sodipodi:cy="767.49915"
       sodipodi:rx="24.243662"
       sodipodi:ry="24.243662"
       d="m 147.48227,767.49915 c 0,13.3894 -10.85426,24.24366 -24.24366,24.24366 -13.38941,0 -24.243663,-10.85426 -24.243663,-24.24366 0,-13.38941 10.854253,-24.24367 24.243663,-24.24367 13.3894,0 24.24366,10.85426 24.24366,24.24367 z" />
    <path
       transform="matrix(0.33076926,0,0,0.33076926,92.576592,459.59088)"
       sodipodi:type="arc"
       style="color:#000000;fill:#000000;fill-opacity:1;fill-rule:nonzero;stroke:none;stroke-width:0.33500001;marker:none;visibility:visible;display:inline;overflow:visible;enable-background:accumulate"
       id="path2985-2-1-80"
       sodipodi:cx="123.23861"
       sodipodi:cy="767.49915"
       sodipodi:rx="24.243662"
       sodipodi:ry="24.243662"
       d="m 147.48227,767.49915 c 0,13.3894 -10.85426,24.24366 -24.24366,24.24366 -13.38941,0 -24.243663,-10.85426 -24.243663,-24.24366 0,-13.38941 10.854253,-24.24367 24.243663,-24.24367 13.3894,0 24.24366,10.85426 24.24366,24.24367 z" />
    <path
       style="fill:none;stroke:#000000;stroke-width:1px;stroke-linecap:butt;stroke-linejoin:miter;stroke-opacity:1;marker-end:url(#Arrow1Mend)"
       d="m 103.03556,768.00424 c 32.89177,1.91192 29.53132,-20.75734 31.31473,-43.94163"
       id="path5378"
       inkscape:connector-curvature="0" />
    <path
       style="fill:none;stroke:#000000;stroke-width:1px;stroke-linecap:butt;stroke-linejoin:miter;stroke-opacity:1;marker-end:url(#Arrow1Mend)"
       d="M 113.13709,735.17428 127.7843,718.50677"
       id="path5380"
       inkscape:connector-curvature="0" />
    <path
       style="fill:none;stroke:#000000;stroke-width:1px;stroke-linecap:butt;stroke-linejoin:miter;stroke-opacity:1;marker-end:url(#Arrow1Mend)"
       d="M 101.52033,732.14383 87.883271,718.50677"
       id="path5382"
       inkscape:connector-curvature="0" />
    <path
       style="fill:none;stroke:#000000;stroke-width:1px;stroke-linecap:butt;stroke-linejoin:miter;stroke-opacity:1;marker-end:url(#Arrow1Mend)"
       d="m 112.63201,732.14383 13.13198,-58.58885"
       id="path5384"
       inkscape:connector-curvature="0" />
    <path
       transform="matrix(0.33076926,0,0,0.33076926,47.624804,373.22284)"
       sodipodi:type="arc"
       style="color:#000000;fill:#000000;fill-opacity:1;fill-rule:nonzero;stroke:none;stroke-width:0.33500001;marker:none;visibility:visible;display:inline;overflow:visible;enable-background:accumulate"
       id="path2985-2-1-1-4"
       sodipodi:cx="123.23861"
       sodipodi:cy="767.49915"
       sodipodi:rx="24.243662"
       sodipodi:ry="24.243662"
       d="m 147.48227,767.49915 c 0,13.3894 -10.85426,24.24366 -24.24366,24.24366 -13.38941,0 -24.243663,-10.85426 -24.243663,-24.24366 0,-13.38941 10.854253,-24.24367 24.243663,-24.24367 13.3894,0 24.24366,10.85426 24.24366,24.24367 z" />
    <path
       transform="matrix(0.33076926,0,0,0.33076926,69.84816,374.73807)"
       sodipodi:type="arc"
       style="color:#000000;fill:#000000;fill-opacity:1;fill-rule:nonzero;stroke:none;stroke-width:0.33500001;marker:none;visibility:visible;display:inline;overflow:visible;enable-background:accumulate"
       id="path2985-2-1-1-47"
       sodipodi:cx="123.23861"
       sodipodi:cy="767.49915"
       sodipodi:rx="24.243662"
       sodipodi:ry="24.243662"
       d="m 147.48227,767.49915 c 0,13.3894 -10.85426,24.24366 -24.24366,24.24366 -13.38941,0 -24.243663,-10.85426 -24.243663,-24.24366 0,-13.38941 10.854253,-24.24367 24.243663,-24.24367 13.3894,0 24.24366,10.85426 24.24366,24.24367 z" />
    <path
       transform="matrix(0.33076926,0,0,0.33076926,90.556287,368.17207)"
       sodipodi:type="arc"
       style="color:#000000;fill:#ff0000;fill-opacity:1;fill-rule:nonzero;stroke:none;stroke-width:0.33500001;marker:none;visibility:visible;display:inline;overflow:visible;enable-background:accumulate"
       id="path2985-2-1-1-2"
       sodipodi:cx="123.23861"
       sodipodi:cy="767.49915"
       sodipodi:rx="24.243662"
       sodipodi:ry="24.243662"
       d="m 147.48227,767.49915 c 0,13.3894 -10.85426,24.24366 -24.24366,24.24366 -13.38941,0 -24.243663,-10.85426 -24.243663,-24.24366 0,-13.38941 10.854253,-24.24367 24.243663,-24.24367 13.3894,0 24.24366,10.85426 24.24366,24.24367 z" />
    <path
       transform="matrix(0.33076926,0,0,0.33076926,102.17304,383.32436)"
       sodipodi:type="arc"
       style="color:#000000;fill:#000000;fill-opacity:1;fill-rule:nonzero;stroke:none;stroke-width:0.33500001;marker:none;visibility:visible;display:inline;overflow:visible;enable-background:accumulate"
       id="path2985-2-1-1-1"
       sodipodi:cx="123.23861"
       sodipodi:cy="767.49915"
       sodipodi:rx="24.243662"
       sodipodi:ry="24.243662"
       d="m 147.48227,767.49915 c 0,13.3894 -10.85426,24.24366 -24.24366,24.24366 -13.38941,0 -24.243663,-10.85426 -24.243663,-24.24366 0,-13.38941 10.854253,-24.24367 24.243663,-24.24367 13.3894,0 24.24366,10.85426 24.24366,24.24367 z" />
    <path
       transform="matrix(0.33076926,0,0,0.33076926,84.495372,386.35482)"
       sodipodi:type="arc"
       style="color:#000000;fill:#000000;fill-opacity:1;fill-rule:nonzero;stroke:none;stroke-width:0.33500001;marker:none;visibility:visible;display:inline;overflow:visible;enable-background:accumulate"
       id="path2985-2-1-1-12"
       sodipodi:cx="123.23861"
       sodipodi:cy="767.49915"
       sodipodi:rx="24.243662"
       sodipodi:ry="24.243662"
       d="m 147.48227,767.49915 c 0,13.3894 -10.85426,24.24366 -24.24366,24.24366 -13.38941,0 -24.243663,-10.85426 -24.243663,-24.24366 0,-13.38941 10.854253,-24.24367 24.243663,-24.24367 13.3894,0 24.24366,10.85426 24.24366,24.24367 z" />
    <path
       transform="matrix(0.33076926,0,0,0.33076926,32.977592,367.16192)"
       sodipodi:type="arc"
       style="color:#000000;fill:#000000;fill-opacity:1;fill-rule:nonzero;stroke:none;stroke-width:0.33500001;marker:none;visibility:visible;display:inline;overflow:visible;enable-background:accumulate"
       id="path2985-2-1-1-8"
       sodipodi:cx="123.23861"
       sodipodi:cy="767.49915"
       sodipodi:rx="24.243662"
       sodipodi:ry="24.243662"
       d="m 147.48227,767.49915 c 0,13.3894 -10.85426,24.24366 -24.24366,24.24366 -13.38941,0 -24.243663,-10.85426 -24.243663,-24.24366 0,-13.38941 10.854253,-24.24367 24.243663,-24.24367 13.3894,0 24.24366,10.85426 24.24366,24.24367 z" />
    <path
       transform="matrix(0.33076926,0,0,0.33076926,61.76694,363.62639)"
       sodipodi:type="arc"
       style="color:#000000;fill:#000000;fill-opacity:1;fill-rule:nonzero;stroke:none;stroke-width:0.33500001;marker:none;visibility:visible;display:inline;overflow:visible;enable-background:accumulate"
       id="path2985-2-1-1-5"
       sodipodi:cx="123.23861"
       sodipodi:cy="767.49915"
       sodipodi:rx="24.243662"
       sodipodi:ry="24.243662"
       d="m 147.48227,767.49915 c 0,13.3894 -10.85426,24.24366 -24.24366,24.24366 -13.38941,0 -24.243663,-10.85426 -24.243663,-24.24366 0,-13.38941 10.854253,-24.24367 24.243663,-24.24367 13.3894,0 24.24366,10.85426 24.24366,24.24367 z" />
    <path
       transform="matrix(0.33076926,0,0,0.33076926,75.909075,369.18223)"
       sodipodi:type="arc"
       style="color:#000000;fill:#000000;fill-opacity:1;fill-rule:nonzero;stroke:none;stroke-width:0.33500001;marker:none;visibility:visible;display:inline;overflow:visible;enable-background:accumulate"
       id="path2985-2-1-1-0"
       sodipodi:cx="123.23861"
       sodipodi:cy="767.49915"
       sodipodi:rx="24.243662"
       sodipodi:ry="24.243662"
       d="m 147.48227,767.49915 c 0,13.3894 -10.85426,24.24366 -24.24366,24.24366 -13.38941,0 -24.243663,-10.85426 -24.243663,-24.24366 0,-13.38941 10.854253,-24.24367 24.243663,-24.24367 13.3894,0 24.24366,10.85426 24.24366,24.24367 z" />
    <path
       transform="matrix(0.33076926,0,0,0.33076926,53.180643,365.14162)"
       sodipodi:type="arc"
       style="color:#000000;fill:#000000;fill-opacity:1;fill-rule:nonzero;stroke:none;stroke-width:0.33500001;marker:none;visibility:visible;display:inline;overflow:visible;enable-background:accumulate"
       id="path2985-2-1-1-3"
       sodipodi:cx="123.23861"
       sodipodi:cy="767.49915"
       sodipodi:rx="24.243662"
       sodipodi:ry="24.243662"
       d="m 147.48227,767.49915 c 0,13.3894 -10.85426,24.24366 -24.24366,24.24366 -13.38941,0 -24.243663,-10.85426 -24.243663,-24.24366 0,-13.38941 10.854253,-24.24367 24.243663,-24.24367 13.3894,0 24.24366,10.85426 24.24366,24.24367 z" />
    <path
       transform="matrix(0.33076926,0,0,0.33076926,39.038508,393.42589)"
       sodipodi:type="arc"
       style="color:#000000;fill:#000000;fill-opacity:1;fill-rule:nonzero;stroke:none;stroke-width:0.33500001;marker:none;visibility:visible;display:inline;overflow:visible;enable-background:accumulate"
       id="path2985-2-1-1-53"
       sodipodi:cx="123.23861"
       sodipodi:cy="767.49915"
       sodipodi:rx="24.243662"
       sodipodi:ry="24.243662"
       d="m 147.48227,767.49915 c 0,13.3894 -10.85426,24.24366 -24.24366,24.24366 -13.38941,0 -24.243663,-10.85426 -24.243663,-24.24366 0,-13.38941 10.854253,-24.24367 24.243663,-24.24367 13.3894,0 24.24366,10.85426 24.24366,24.24367 z" />
    <path
       transform="matrix(0.33076926,0,0,0.33076926,67.827855,389.38528)"
       sodipodi:type="arc"
       style="color:#000000;fill:#000000;fill-opacity:1;fill-rule:nonzero;stroke:none;stroke-width:0.33500001;marker:none;visibility:visible;display:inline;overflow:visible;enable-background:accumulate"
       id="path2985-2-1-1-7"
       sodipodi:cx="123.23861"
       sodipodi:cy="767.49915"
       sodipodi:rx="24.243662"
       sodipodi:ry="24.243662"
       d="m 147.48227,767.49915 c 0,13.3894 -10.85426,24.24366 -24.24366,24.24366 -13.38941,0 -24.243663,-10.85426 -24.243663,-24.24366 0,-13.38941 10.854253,-24.24367 24.243663,-24.24367 13.3894,0 24.24366,10.85426 24.24366,24.24367 z" />
    <text
       xml:space="preserve"
       style="font-size:14px;font-style:normal;font-variant:normal;font-weight:bold;font-stretch:normal;text-indent:0;text-align:center;text-decoration:none;line-height:125%;letter-spacing:normal;word-spacing:normal;text-transform:none;direction:ltr;block-progression:tb;writing-mode:lr-tb;text-anchor:middle;baseline-shift:baseline;color:#000000;fill:#ff0000;fill-opacity:1;fill-rule:nonzero;stroke:none;stroke-width:0.33500001;marker:none;visibility:visible;display:inline;overflow:visible;enable-background:accumulate;font-family:'M+ 2c';-inkscape-font-specification:'M+ 2c Bold'"
       x="156.45181"
       y="618.50165"
       id="text5662"
       sodipodi:linespacing="125%"><tspan
         sodipodi:role="line"
         id="tspan5664"
         x="156.45181"
         y="618.50165">goal</tspan></text>
    <path
       transform="matrix(0.33076926,0,0,0.33076926,28.289634,348.10901)"
       sodipodi:type="arc"
       style="color:#000000;fill:#000000;fill-opacity:1;fill-rule:nonzero;stroke:none;stroke-width:0.33500001;marker:none;visibility:visible;display:inline;overflow:visible;enable-background:accumulate"
       id="path2985-2-1-1-8-8"
       sodipodi:cx="123.23861"
       sodipodi:cy="767.49915"
       sodipodi:rx="24.243662"
       sodipodi:ry="24.243662"
       d="m 147.48227,767.49915 c 0,13.3894 -10.85426,24.24366 -24.24366,24.24366 -13.38941,0 -24.243663,-10.85426 -24.243663,-24.24366 0,-13.38941 10.854253,-24.24367 24.243663,-24.24367 13.3894,0 24.24366,10.85426 24.24366,24.24367 z" />
    <path
       transform="matrix(0.33076926,0,0,0.33076926,60.109439,348.10901)"
       sodipodi:type="arc"
       style="color:#000000;fill:#000000;fill-opacity:1;fill-rule:nonzero;stroke:none;stroke-width:0.33500001;marker:none;visibility:visible;display:inline;overflow:visible;enable-background:accumulate"
       id="path2985-2-1-1-8-3"
       sodipodi:cx="123.23861"
       sodipodi:cy="767.49915"
       sodipodi:rx="24.243662"
       sodipodi:ry="24.243662"
       d="m 147.48227,767.49915 c 0,13.3894 -10.85426,24.24366 -24.24366,24.24366 -13.38941,0 -24.243663,-10.85426 -24.243663,-24.24366 0,-13.38941 10.854253,-24.24367 24.243663,-24.24367 13.3894,0 24.24366,10.85426 24.24366,24.24367 z" />
    <path
       transform="matrix(0.33076926,0,0,0.33076926,87.383557,339.01763)"
       sodipodi:type="arc"
       style="color:#000000;fill:#000000;fill-opacity:1;fill-rule:nonzero;stroke:none;stroke-width:0.33500001;marker:none;visibility:visible;display:inline;overflow:visible;enable-background:accumulate"
       id="path2985-2-1-1-8-6"
       sodipodi:cx="123.23861"
       sodipodi:cy="767.49915"
       sodipodi:rx="24.243662"
       sodipodi:ry="24.243662"
       d="m 147.48227,767.49915 c 0,13.3894 -10.85426,24.24366 -24.24366,24.24366 -13.38941,0 -24.243663,-10.85426 -24.243663,-24.24366 0,-13.38941 10.854253,-24.24367 24.243663,-24.24367 13.3894,0 24.24366,10.85426 24.24366,24.24367 z" />
    <path
       transform="matrix(0.33076926,0,0,0.33076926,42.431769,350.63439)"
       sodipodi:type="arc"
       style="color:#000000;fill:#000000;fill-opacity:1;fill-rule:nonzero;stroke:none;stroke-width:0.33500001;marker:none;visibility:visible;display:inline;overflow:visible;enable-background:accumulate"
       id="path2985-2-1-1-8-30"
       sodipodi:cx="123.23861"
       sodipodi:cy="767.49915"
       sodipodi:rx="24.243662"
       sodipodi:ry="24.243662"
       d="m 147.48227,767.49915 c 0,13.3894 -10.85426,24.24366 -24.24366,24.24366 -13.38941,0 -24.243663,-10.85426 -24.243663,-24.24366 0,-13.38941 10.854253,-24.24367 24.243663,-24.24367 13.3894,0 24.24366,10.85426 24.24366,24.24367 z" />
    <path
       transform="matrix(0.33076926,0,0,0.33076926,69.200812,355.18007)"
       sodipodi:type="arc"
       style="color:#000000;fill:#000000;fill-opacity:1;fill-rule:nonzero;stroke:none;stroke-width:0.33500001;marker:none;visibility:visible;display:inline;overflow:visible;enable-background:accumulate"
       id="path2985-2-1-1-8-5"
       sodipodi:cx="123.23861"
       sodipodi:cy="767.49915"
       sodipodi:rx="24.243662"
       sodipodi:ry="24.243662"
       d="m 147.48227,767.49915 c 0,13.3894 -10.85426,24.24366 -24.24366,24.24366 -13.38941,0 -24.243663,-10.85426 -24.243663,-24.24366 0,-13.38941 10.854253,-24.24367 24.243663,-24.24367 13.3894,0 24.24366,10.85426 24.24366,24.24367 z" />
    <path
       transform="matrix(0.33076926,0,0,0.33076926,90.414015,351.13946)"
       sodipodi:type="arc"
       style="color:#000000;fill:#000000;fill-opacity:1;fill-rule:nonzero;stroke:none;stroke-width:0.33500001;marker:none;visibility:visible;display:inline;overflow:visible;enable-background:accumulate"
       id="path2985-2-1-1-8-88"
       sodipodi:cx="123.23861"
       sodipodi:cy="767.49915"
       sodipodi:rx="24.243662"
       sodipodi:ry="24.243662"
       d="m 147.48227,767.49915 c 0,13.3894 -10.85426,24.24366 -24.24366,24.24366 -13.38941,0 -24.243663,-10.85426 -24.243663,-24.24366 0,-13.38941 10.854253,-24.24367 24.243663,-24.24367 13.3894,0 24.24366,10.85426 24.24366,24.24367 z" />
    <path
       transform="matrix(0.33076926,0,0,0.33076926,111.62722,349.11916)"
       sodipodi:type="arc"
       style="color:#000000;fill:#000000;fill-opacity:1;fill-rule:nonzero;stroke:none;stroke-width:0.33500001;marker:none;visibility:visible;display:inline;overflow:visible;enable-background:accumulate"
       id="path2985-2-1-1-8-7"
       sodipodi:cx="123.23861"
       sodipodi:cy="767.49915"
       sodipodi:rx="24.243662"
       sodipodi:ry="24.243662"
       d="m 147.48227,767.49915 c 0,13.3894 -10.85426,24.24366 -24.24366,24.24366 -13.38941,0 -24.243663,-10.85426 -24.243663,-24.24366 0,-13.38941 10.854253,-24.24367 24.243663,-24.24367 13.3894,0 24.24366,10.85426 24.24366,24.24367 z" />
    <path
       transform="matrix(0.33076926,0,0,0.33076926,17.683032,359.72576)"
       sodipodi:type="arc"
       style="color:#000000;fill:#000000;fill-opacity:1;fill-rule:nonzero;stroke:none;stroke-width:0.33500001;marker:none;visibility:visible;display:inline;overflow:visible;enable-background:accumulate"
       id="path2985-2-1-1-8-31"
       sodipodi:cx="123.23861"
       sodipodi:cy="767.49915"
       sodipodi:rx="24.243662"
       sodipodi:ry="24.243662"
       d="m 147.48227,767.49915 c 0,13.3894 -10.85426,24.24366 -24.24366,24.24366 -13.38941,0 -24.243663,-10.85426 -24.243663,-24.24366 0,-13.38941 10.854253,-24.24367 24.243663,-24.24367 13.3894,0 24.24366,10.85426 24.24366,24.24367 z" />
    <text
       xml:space="preserve"
       style="font-size:24px;font-style:normal;font-variant:normal;font-weight:normal;font-stretch:normal;text-indent:0;text-align:center;text-decoration:none;line-height:125%;letter-spacing:normal;word-spacing:normal;text-transform:none;direction:ltr;block-progression:tb;writing-mode:lr-tb;text-anchor:middle;baseline-shift:baseline;color:#000000;fill:#000000;fill-opacity:1;fill-rule:nonzero;stroke:none;stroke-width:1;marker:none;visibility:visible;display:inline;overflow:visible;enable-background:accumulate;font-family:Times New Roman;-inkscape-font-specification:'Times New Roman,'"
       x="168.61537"
       y="637.32947"
       id="text3129"
       sodipodi:linespacing="125%"><tspan
         sodipodi:role="line"
         id="tspan3131"
         x="168.61537"
         y="637.32947" /></text>
    <text
       xml:space="preserve"
       style="font-size:28px;font-style:normal;font-variant:normal;font-weight:bold;font-stretch:normal;text-indent:0;text-align:center;text-decoration:none;line-height:125%;letter-spacing:normal;word-spacing:normal;text-transform:none;direction:ltr;block-progression:tb;writing-mode:lr-tb;text-anchor:middle;baseline-shift:baseline;color:#000000;fill:#000000;fill-opacity:1;fill-rule:nonzero;stroke:none;stroke-width:1;marker:none;visibility:visible;display:inline;overflow:visible;enable-background:accumulate;font-family:'M+ 2c';-inkscape-font-specification:'M+ 2c Bold'"
       x="175.68126"
       y="643.47009"
       id="text6515-3-5"
       sodipodi:linespacing="125%"><tspan
         sodipodi:role="line"
         id="tspan6517-7-1"
         x="175.68126"
         y="643.47009">g</tspan></text>
  </g>
</svg>
