<?xml version="1.0" encoding="UTF-8" standalone="no"?>
<!-- Created with Inkscape (http://www.inkscape.org/) -->

<svg
   xmlns:dc="http://purl.org/dc/elements/1.1/"
   xmlns:cc="http://creativecommons.org/ns#"
   xmlns:rdf="http://www.w3.org/1999/02/22-rdf-syntax-ns#"
   xmlns:svg="http://www.w3.org/2000/svg"
   xmlns="http://www.w3.org/2000/svg"
   xmlns:sodipodi="http://sodipodi.sourceforge.net/DTD/sodipodi-0.dtd"
   xmlns:inkscape="http://www.inkscape.org/namespaces/inkscape"
   width="225.1412"
   height="70.574974"
   id="svg3323"
   version="1.1"
   inkscape:version="0.48.4 r9939"
   sodipodi:docname="trees.svg">
  <defs
     id="defs3325" />
  <sodipodi:namedview
     id="base"
     pagecolor="#ffffff"
     bordercolor="#666666"
     borderopacity="1.0"
     inkscape:pageopacity="0.0"
     inkscape:pageshadow="2"
     inkscape:zoom="2.8"
     inkscape:cx="105.78261"
     inkscape:cy="40.572672"
     inkscape:document-units="px"
     inkscape:current-layer="layer1"
     showgrid="false"
     fit-margin-top="0"
     fit-margin-left="0"
     fit-margin-right="0"
     fit-margin-bottom="0"
     inkscape:window-width="1440"
     inkscape:window-height="818"
     inkscape:window-x="768"
     inkscape:window-y="25"
     inkscape:window-maximized="1"
     units="in" />
  <metadata
     id="metadata3328">
    <rdf:RDF>
      <cc:Work
         rdf:about="">
        <dc:format>image/svg+xml</dc:format>
        <dc:type
           rdf:resource="http://purl.org/dc/dcmitype/StillImage" />
        <dc:title />
      </cc:Work>
    </rdf:RDF>
  </metadata>
  <g
     inkscape:label="レイヤー 1"
     inkscape:groupmode="layer"
     id="layer1"
     transform="translate(-223.82593,-389.21757)">
    <text
       xml:space="preserve"
       style="font-size:24px;font-style:normal;font-variant:normal;font-weight:normal;font-stretch:normal;text-indent:0;text-align:center;text-decoration:none;line-height:125%;letter-spacing:normal;word-spacing:normal;text-transform:none;direction:ltr;block-progression:tb;writing-mode:lr-tb;text-anchor:middle;baseline-shift:baseline;color:#000000;fill:#000000;fill-opacity:1;fill-rule:nonzero;stroke:none;stroke-width:2;marker:none;visibility:visible;display:inline;overflow:visible;enable-background:accumulate;font-family:Times New Roman;-inkscape-font-specification:'Times New Roman,'"
       x="239.6814"
       y="459.24683"
       id="text2989"
       sodipodi:linespacing="125%"><tspan
         sodipodi:role="line"
         id="tspan2991"
         x="239.6814"
         y="459.24683">f=0</tspan></text>
    <path
       sodipodi:type="arc"
       style="color:#000000;fill:#000000;fill-opacity:1;fill-rule:nonzero;stroke:none;stroke-width:2;marker:none;visibility:visible;display:inline;overflow:visible;enable-background:accumulate"
       id="path2993"
       sodipodi:cx="68.571426"
       sodipodi:cy="155.93361"
       sodipodi:rx="7.8571429"
       sodipodi:ry="7.8571429"
       d="m 76.428569,155.93361 c 0,4.33938 -3.517762,7.85714 -7.857143,7.85714 -4.33938,0 -7.857143,-3.51776 -7.857143,-7.85714 0,-4.33938 3.517763,-7.85714 7.857143,-7.85714 4.339381,0 7.857143,3.51776 7.857143,7.85714 z"
       transform="translate(168.25284,259.0275)" />
    <path
       sodipodi:type="arc"
       style="color:#000000;fill:#a9a9a9;fill-opacity:1;fill-rule:nonzero;stroke:none;stroke-width:2;marker:none;visibility:visible;display:inline;overflow:visible;enable-background:accumulate"
       id="path2993-9"
       sodipodi:cx="68.571426"
       sodipodi:cy="155.93361"
       sodipodi:rx="7.8571429"
       sodipodi:ry="7.8571429"
       d="m 76.428569,155.93361 c 0,4.33938 -3.517762,7.85714 -7.857143,7.85714 -4.33938,0 -7.857143,-3.51776 -7.857143,-7.85714 0,-4.33938 3.517763,-7.85714 7.857143,-7.85714 4.339381,0 7.857143,3.51776 7.857143,7.85714 z"
       transform="translate(330.03855,244.02749)" />
    <path
       sodipodi:type="arc"
       style="color:#000000;fill:#a9a9a9;fill-opacity:1;fill-rule:nonzero;stroke:none;stroke-width:2;marker:none;visibility:visible;display:inline;overflow:visible;enable-background:accumulate"
       id="path2993-6"
       sodipodi:cx="68.571426"
       sodipodi:cy="155.93361"
       sodipodi:rx="7.8571429"
       sodipodi:ry="7.8571429"
       d="m 76.428569,155.93361 c 0,4.33938 -3.517762,7.85714 -7.857143,7.85714 -4.33938,0 -7.857143,-3.51776 -7.857143,-7.85714 0,-4.33938 3.517763,-7.85714 7.857143,-7.85714 4.339381,0 7.857143,3.51776 7.857143,7.85714 z"
       transform="translate(330.03855,265.09892)" />
    <path
       sodipodi:type="arc"
       style="color:#000000;fill:#a9a9a9;fill-opacity:1;fill-rule:nonzero;stroke:none;stroke-width:2;marker:none;visibility:visible;display:inline;overflow:visible;enable-background:accumulate"
       id="path2993-01"
       sodipodi:cx="68.571426"
       sodipodi:cy="155.93361"
       sodipodi:rx="7.8571429"
       sodipodi:ry="7.8571429"
       d="m 76.428569,155.93361 c 0,4.33938 -3.517762,7.85714 -7.857143,7.85714 -4.33938,0 -7.857143,-3.51776 -7.857143,-7.85714 0,-4.33938 3.517763,-7.85714 7.857143,-7.85714 4.339381,0 7.857143,3.51776 7.857143,7.85714 z"
       transform="translate(292.53855,255.45606)" />
    <path
       sodipodi:type="arc"
       style="color:#000000;fill:#000000;fill-opacity:1;fill-rule:nonzero;stroke:none;stroke-width:2;marker:none;visibility:visible;display:inline;overflow:visible;enable-background:accumulate"
       id="path2993-3"
       sodipodi:cx="68.571426"
       sodipodi:cy="155.93361"
       sodipodi:rx="7.8571429"
       sodipodi:ry="7.8571429"
       d="m 76.428569,155.93361 c 0,4.33938 -3.517762,7.85714 -7.857143,7.85714 -4.33938,0 -7.857143,-3.51776 -7.857143,-7.85714 0,-4.33938 3.517763,-7.85714 7.857143,-7.85714 4.339381,0 7.857143,3.51776 7.857143,7.85714 z"
       transform="translate(372.53856,278.3132)" />
    <path
       sodipodi:type="arc"
       style="color:#000000;fill:#000000;fill-opacity:1;fill-rule:nonzero;stroke:none;stroke-width:2;marker:none;visibility:visible;display:inline;overflow:visible;enable-background:accumulate"
       id="path2993-1"
       sodipodi:cx="68.571426"
       sodipodi:cy="155.93361"
       sodipodi:rx="7.8571429"
       sodipodi:ry="7.8571429"
       d="m 76.428569,155.93361 c 0,4.33938 -3.517762,7.85714 -7.857143,7.85714 -4.33938,0 -7.857143,-3.51776 -7.857143,-7.85714 0,-4.33938 3.517763,-7.85714 7.857143,-7.85714 4.339381,0 7.857143,3.51776 7.857143,7.85714 z"
       transform="translate(372.1814,260.45606)" />
    <path
       sodipodi:type="arc"
       style="color:#000000;fill:#000000;fill-opacity:1;fill-rule:nonzero;stroke:none;stroke-width:2;marker:none;visibility:visible;display:inline;overflow:visible;enable-background:accumulate"
       id="path2993-9-5"
       sodipodi:cx="68.571426"
       sodipodi:cy="155.93361"
       sodipodi:rx="7.8571429"
       sodipodi:ry="7.8571429"
       d="m 76.428569,155.93361 c 0,4.33938 -3.517762,7.85714 -7.857143,7.85714 -4.33938,0 -7.857143,-3.51776 -7.857143,-7.85714 0,-4.33938 3.517763,-7.85714 7.857143,-7.85714 4.339381,0 7.857143,3.51776 7.857143,7.85714 z"
       transform="translate(251.10998,249.74177)" />
    <path
       sodipodi:type="arc"
       style="color:#000000;fill:#000000;fill-opacity:1;fill-rule:nonzero;stroke:none;stroke-width:2;marker:none;visibility:visible;display:inline;overflow:visible;enable-background:accumulate"
       id="path2993-6-5"
       sodipodi:cx="68.571426"
       sodipodi:cy="155.93361"
       sodipodi:rx="7.8571429"
       sodipodi:ry="7.8571429"
       d="m 76.428569,155.93361 c 0,4.33938 -3.517762,7.85714 -7.857143,7.85714 -4.33938,0 -7.857143,-3.51776 -7.857143,-7.85714 0,-4.33938 3.517763,-7.85714 7.857143,-7.85714 4.339381,0 7.857143,3.51776 7.857143,7.85714 z"
       transform="translate(250.8395,267.53764)" />
    <path
       sodipodi:type="arc"
       style="color:#000000;fill:#a9a9a9;fill-opacity:1;fill-rule:nonzero;stroke:none;stroke-width:2;marker:none;visibility:visible;display:inline;overflow:visible;enable-background:accumulate"
       id="path2993-01-2"
       sodipodi:cx="68.571426"
       sodipodi:cy="155.93361"
       sodipodi:rx="7.8571429"
       sodipodi:ry="7.8571429"
       d="m 76.428569,155.93361 c 0,4.33938 -3.517762,7.85714 -7.857143,7.85714 -4.33938,0 -7.857143,-3.51776 -7.857143,-7.85714 0,-4.33938 3.517763,-7.85714 7.857143,-7.85714 4.339381,0 7.857143,3.51776 7.857143,7.85714 z"
       transform="translate(213.96712,257.24178)" />
    <text
       xml:space="preserve"
       style="font-size:24px;font-style:normal;font-variant:normal;font-weight:normal;font-stretch:normal;text-indent:0;text-align:center;text-decoration:none;line-height:125%;letter-spacing:normal;word-spacing:normal;text-transform:none;direction:ltr;block-progression:tb;writing-mode:lr-tb;text-anchor:middle;baseline-shift:baseline;color:#000000;fill:#000000;fill-opacity:1;fill-rule:nonzero;stroke:none;stroke-width:2;marker:none;visibility:visible;display:inline;overflow:visible;enable-background:accumulate;font-family:Times New Roman;-inkscape-font-specification:'Times New Roman,'"
       x="300.2952"
       y="458.36395"
       id="text2989-1"
       sodipodi:linespacing="125%"><tspan
         sodipodi:role="line"
         id="tspan2991-1"
         x="300.2952"
         y="458.36395">f=1</tspan></text>
    <text
       xml:space="preserve"
       style="font-size:24px;font-style:normal;font-variant:normal;font-weight:normal;font-stretch:normal;text-indent:0;text-align:center;text-decoration:none;line-height:125%;letter-spacing:normal;word-spacing:normal;text-transform:none;direction:ltr;block-progression:tb;writing-mode:lr-tb;text-anchor:middle;baseline-shift:baseline;color:#000000;fill:#000000;fill-opacity:1;fill-rule:nonzero;stroke:none;stroke-width:2;marker:none;visibility:visible;display:inline;overflow:visible;enable-background:accumulate;font-family:Times New Roman;-inkscape-font-specification:'Times New Roman,'"
       x="400.2952"
       y="459.79254"
       id="text2989-0"
       sodipodi:linespacing="125%"><tspan
         sodipodi:role="line"
         id="tspan2991-5"
         x="400.2952"
         y="459.79254">f=2</tspan></text>
    <path
       style="fill:none;stroke:#000000;stroke-width:1px;stroke-linecap:butt;stroke-linejoin:miter;stroke-opacity:1"
       d="m 288.02049,409.79263 24.09572,-3.46374"
       id="path3126"
       inkscape:connector-curvature="0"
       sodipodi:nodetypes="cc" />
    <path
       style="fill:none;stroke:#000000;stroke-width:1px;stroke-linecap:butt;stroke-linejoin:miter;stroke-opacity:1"
       d="m 288.69888,417.87385 22.64177,5.1628"
       id="path3128"
       inkscape:connector-curvature="0"
       sodipodi:nodetypes="cc" />
    <path
       style="fill:none;stroke:#000000;stroke-width:1px;stroke-linecap:butt;stroke-linejoin:miter;stroke-opacity:1"
       d="m 368.43169,407.18059 22.28463,-6.82597"
       id="path3130"
       inkscape:connector-curvature="0"
       sodipodi:nodetypes="cc" />
    <path
       style="fill:none;stroke:#000000;stroke-width:1px;stroke-linecap:butt;stroke-linejoin:miter;stroke-opacity:1"
       d="m 368.43169,414.25166 22.07542,5.66788"
       id="path3132"
       inkscape:connector-curvature="0"
       sodipodi:nodetypes="cc" />
    <path
       style="fill:none;stroke:#000000;stroke-width:1px;stroke-linecap:butt;stroke-linejoin:miter;stroke-opacity:1"
       d="m 405.80733,420.74586 28.28427,-3.53554"
       id="path3134"
       inkscape:connector-curvature="0" />
    <path
       style="fill:none;stroke:#000000;stroke-width:1px;stroke-linecap:butt;stroke-linejoin:miter;stroke-opacity:1"
       d="m 404.50132,424.36805 27.77919,7.83612"
       id="path3136"
       inkscape:connector-curvature="0"
       sodipodi:nodetypes="cc" />
    <path
       style="fill:none;stroke:#000000;stroke-width:1px;stroke-linecap:butt;stroke-linejoin:miter;stroke-opacity:1"
       d="m 405.59812,398.66608 26.68238,-1.14757"
       id="path3138"
       inkscape:connector-curvature="0"
       sodipodi:nodetypes="cc" />
    <path
       sodipodi:type="arc"
       style="color:#000000;fill:#000000;fill-opacity:1;fill-rule:nonzero;stroke:none;stroke-width:2;marker:none;visibility:visible;display:inline;overflow:visible;enable-background:accumulate"
       id="path2993-9-7"
       sodipodi:cx="68.571426"
       sodipodi:cy="155.93361"
       sodipodi:rx="7.8571429"
       sodipodi:ry="7.8571429"
       d="m 76.428569,155.93361 c 0,4.33938 -3.517762,7.85714 -7.857143,7.85714 -4.33938,0 -7.857143,-3.51776 -7.857143,-7.85714 0,-4.33938 3.517763,-7.85714 7.857143,-7.85714 4.339381,0 7.857143,3.51776 7.857143,7.85714 z"
       transform="translate(372.23411,241.1411)" />
  </g>
</svg>
